<?xml version="1.0" encoding="UTF-8"?>
<svg id="Layer_1" xmlns="http://www.w3.org/2000/svg" version="1.1" viewBox="0 0 4555.09 1759.09">
  <!-- Generator: Adobe Illustrator 29.8.1, SVG Export Plug-In . SVG Version: 2.1.1 Build 2)  -->
  <defs>
    <style>
      .st0 {
        fill: #eb5326;
      }

      .st1 {
        fill: #010101;
      }
    </style>
  </defs>
  <g>
    <path class="st1" d="M1389.55,654.81v454.44h103.51v-260.05h278.88v-95.81h-278.88v-88.97c0-36.85,29.88-66.73,66.73-66.73h226.69v-95.81h-244c-84.46,0-152.93,68.47-152.93,152.93Z"/>
    <path class="st1" d="M2178.58,729.43c-30.23-49.04-80.13-73.57-149.7-73.57-63.3,0-113.35,22.11-150.13,66.3-36.79,44.2-55.18,99.38-55.18,165.54s18.39,121.33,55.18,165.53c36.79,44.2,86.83,66.3,150.13,66.3,69.57,0,119.47-24.52,149.7-73.57v63.31h94.1v-443.12h-94.1v63.31ZM2141.37,989.48c-22.53,26.82-52.9,40.21-91.11,40.21s-67.87-13.54-90.68-40.64c-22.81-27.08-34.21-60.88-34.21-101.37s11.4-74.28,34.21-101.38c22.8-27.07,53.04-40.64,90.68-40.64s68.57,13.41,91.11,40.21c22.53,26.81,33.79,60.73,33.79,101.8s-11.27,74.99-33.79,101.79Z"/>
    <path class="st1" d="M2678.38,728.58c-30.8-49.04-80.13-73.57-147.99-73.57-61.6,0-111.08,21.54-148.42,64.59-37.35,43.06-56.03,96.23-56.03,159.54s18.68,116.49,56.03,159.55c37.34,43.06,86.83,64.58,148.42,64.58s110.63-22.81,140.3-68.44v69.29c0,31.93-9.56,57.45-28.66,76.57-19.12,19.1-45.77,28.66-79.99,28.66-56.46,0-90.97-22.55-103.51-67.59h-101.8c5.69,40.49,25.8,76.42,60.31,107.79,34.49,31.36,82.25,47.05,143.29,47.05,66.72,0,118.76-19.24,156.11-57.74,37.35-38.5,56.04-87.98,56.04-148.42v-425.16h-94.1v63.31ZM2640.74,975.37c-22.81,25.38-52.76,38.06-89.82,38.06s-66.16-12.69-88.97-38.06c-22.81-25.38-34.21-57.45-34.21-96.24s11.4-71.56,34.21-96.66c22.8-25.09,52.47-37.64,88.97-37.64s67.01,12.55,89.82,37.64c22.8,25.11,34.21,57.31,34.21,96.66s-11.41,70.87-34.21,96.24Z"/>
    <path class="st1" d="M3070.09,655c-33.66,0-62.32,6.71-85.97,20.11-23.68,13.41-40.64,29.81-50.9,49.19v-59.03h-94.09v443.98h101.79v-257.49c0-34.22,9.27-61.02,27.8-80.42,18.53-19.38,44.06-29.08,76.57-29.08,29.65,0,51.75,8.98,66.29,26.95,14.55,17.95,21.82,42.63,21.82,73.99v266.04h101.8v-278.87c0-53.05-14.41-95.52-43.2-127.46-28.8-31.93-69.44-47.91-121.9-47.91Z"/>
    <path class="st1" d="M3578.43,926.19c0,69.01-31.37,103.51-94.1,103.51s-94.09-34.5-94.09-103.51v-260.92h-101.8v255.78c0,61.03,15.53,109.36,46.62,145,31.08,35.65,80.84,53.47,149.27,53.47s118.19-17.82,149.28-53.47c31.08-35.63,46.62-83.97,46.62-145v-255.78h-101.8v260.92Z"/>
    <path class="st1" d="M4065.34,901.38c-17.41-19.96-38.65-33.5-63.74-40.64-25.1-7.12-50.19-12.69-75.28-16.68-25.1-3.98-46.34-9.97-63.73-17.97-17.4-7.98-26.1-19.67-26.1-35.08,0-16.53,6.56-29.51,19.68-38.92,13.11-9.41,31.93-14.12,56.45-14.12s43.49,6.29,56.89,18.82c13.39,12.55,20.95,27.67,22.67,45.34h97.52c-1.15-16.54-5-32.79-11.55-48.76-6.56-15.96-16.26-31.65-29.09-47.06-12.83-15.39-30.8-27.8-53.89-37.21-23.1-9.4-49.76-14.12-79.99-14.12-53.04,0-95.68,13.56-127.9,40.64-32.22,27.1-48.33,60.03-48.33,98.81,0,33.66,8.7,60.18,26.1,79.55,17.39,19.4,38.63,32.38,63.73,38.93,25.09,6.56,50.19,11.84,75.28,15.83,25.09,3.99,46.33,10.13,63.73,18.39,17.39,8.27,26.1,20.96,26.1,38.07,0,15.39-7.14,27.67-21.38,36.78-14.26,9.14-34.51,13.69-60.74,13.69-29.66,0-52.76-6.28-69.29-18.82-16.55-12.54-25.38-29.09-26.52-49.62h-98.37c2.85,44.48,19.68,80.98,50.47,109.5,30.8,28.53,76.69,42.78,137.72,42.78s105.07-13.12,137.3-39.36c32.22-26.22,48.33-59.3,48.33-99.23,0-33.07-8.69-59.59-26.09-79.55Z"/>
  </g>
  <g>
    <path class="st0" d="M641.69,1293.21l212.11-83.06-196.5-254.71,323.75-.53,108.77-218.17c-183.54-11.36-887.86-20.29-448.13,556.47Z"/>
    <path class="st0" d="M846.16,462.49c-186.22,0-344.68,135.54-373.58,319.41l-8.92,56.7c6.33-8.85,12.99-17.43,19.95-25.68,46.64-55.89,119.73-97.01,218.15-122.62,48.15-12.55,102.16-21.4,161.42-26.52,40.31-3.5,83.05-5.25,128.04-5.25,34.9,0,69.89,1.08,104.05,3.2l31.03,1.92.91-1.89,23.89-47.92,75.51-151.36h-380.45Z"/>
  </g>
</svg>