<svg xmlns="http://www.w3.org/2000/svg" xmlns:xlink="http://www.w3.org/1999/xlink" xmlns:inkscape="http://www.inkscape.org/namespaces/inkscape" version="1.1" width="1920" height="1080" viewBox="0 0 1920 1080">
<defs>
<clipPath id="clip_0">
<path transform="matrix(1,0,0,-1,0,1080)" d="M0 1080H1920V0H0Z"/>
</clipPath>
</defs>
<g inkscape:groupmode="layer" inkscape:label="Layer 1">
<g clip-path="url(#clip_0)">
<path transform="matrix(1,0,0,-1,351.5592,319.05049)" stroke-width="1" stroke-linecap="butt" stroke-miterlimit="10" stroke-linejoin="miter" fill="none" stroke="#ec5326" d="M0 0 24.223 9.486 1.783 38.573 38.755 38.634 51.176 63.549C30.216 64.846-50.218 65.865 0 0Z"/>
<path transform="matrix(1,0,0,-1,374.9105,224.18262)" stroke-width="1" stroke-linecap="butt" stroke-miterlimit="10" stroke-linejoin="miter" fill="none" stroke="#ec5326" d="M0 0C-21.266 0-39.362-15.479-42.663-36.476L-43.682-42.951C-42.959-41.941-42.198-40.961-41.403-40.019-36.077-33.637-27.73-28.94-16.49-26.016-10.991-24.583-4.823-23.572 1.944-22.988 6.548-22.589 11.429-22.389 16.566-22.389 20.552-22.389 24.548-22.511 28.449-22.754L31.992-22.973 32.095-22.757 34.824-17.285 43.447 0H0Z"/>
<path transform="matrix(1,0,0,-1,446.4983,224.18262)" stroke-width="1" stroke-linecap="butt" stroke-miterlimit="10" stroke-linejoin="miter" fill="none" stroke="#ec5326" d="M0 0-24.223-9.486-1.783-38.573-38.755-38.634-51.176-63.549C-30.216-64.846 50.218-65.865 0 0Z"/>
<path transform="matrix(1,0,0,-1,423.147,319.05049)" stroke-width="1" stroke-linecap="butt" stroke-miterlimit="10" stroke-linejoin="miter" fill="none" stroke="#ec5326" d="M0 0C21.266 0 39.362 15.479 42.663 36.476L43.682 42.951C42.959 41.941 42.198 40.961 41.403 40.019 36.077 33.637 27.73 28.94 16.49 26.016 10.991 24.583 4.823 23.572-1.944 22.988-6.548 22.589-11.429 22.389-16.566 22.389-20.552 22.389-24.548 22.511-28.449 22.754L-31.992 22.973-32.095 22.757-34.824 17.285-43.447 0H0Z"/>
<path transform="matrix(1,0,0,-1,492.0903,319.05049)" stroke-width="1" stroke-linecap="butt" stroke-miterlimit="10" stroke-linejoin="miter" fill="none" stroke="#ec5326" d="M0 0 24.223 9.486 1.783 38.573 38.755 38.634 51.176 63.549C30.216 64.846-50.218 65.865 0 0Z"/>
<path transform="matrix(1,0,0,-1,515.4416,224.18262)" stroke-width="1" stroke-linecap="butt" stroke-miterlimit="10" stroke-linejoin="miter" fill="none" stroke="#ec5326" d="M0 0C-21.266 0-39.362-15.479-42.663-36.476L-43.682-42.951C-42.959-41.941-42.198-40.961-41.403-40.019-36.077-33.637-27.73-28.94-16.49-26.016-10.991-24.583-4.823-23.572 1.944-22.988 6.548-22.589 11.429-22.389 16.566-22.389 20.552-22.389 24.548-22.511 28.449-22.754L31.992-22.973 32.095-22.757 34.824-17.285 43.447 0H0Z"/>
<path transform="matrix(1,0,0,-1,587.0294,224.18262)" stroke-width="1" stroke-linecap="butt" stroke-miterlimit="10" stroke-linejoin="miter" fill="none" stroke="#ec5326" d="M0 0-24.223-9.486-1.783-38.573-38.755-38.634-51.176-63.549C-30.216-64.846 50.218-65.865 0 0Z"/>
<path transform="matrix(1,0,0,-1,563.6781,319.05049)" stroke-width="1" stroke-linecap="butt" stroke-miterlimit="10" stroke-linejoin="miter" fill="none" stroke="#ec5326" d="M0 0C21.266 0 39.362 15.479 42.663 36.476L43.682 42.951C42.959 41.941 42.198 40.961 41.403 40.019 36.077 33.637 27.73 28.94 16.49 26.016 10.991 24.583 4.823 23.572-1.944 22.988-6.548 22.589-11.429 22.389-16.566 22.389-20.552 22.389-24.548 22.511-28.449 22.754L-31.992 22.973-32.095 22.757-34.824 17.285-43.447 0H0Z"/>
<path transform="matrix(1,0,0,-1,630.7877,319.05049)" stroke-width="1" stroke-linecap="butt" stroke-miterlimit="10" stroke-linejoin="miter" fill="none" stroke="#ec5326" d="M0 0 24.223 9.486 1.783 38.573 38.755 38.634 51.176 63.549C30.216 64.846-50.218 65.865 0 0Z"/>
<path transform="matrix(1,0,0,-1,654.1389,224.18262)" stroke-width="1" stroke-linecap="butt" stroke-miterlimit="10" stroke-linejoin="miter" fill="none" stroke="#ec5326" d="M0 0C-21.266 0-39.362-15.479-42.663-36.476L-43.682-42.951C-42.959-41.941-42.198-40.961-41.403-40.019-36.077-33.637-27.73-28.94-16.49-26.016-10.991-24.583-4.823-23.572 1.944-22.988 6.548-22.589 11.429-22.389 16.567-22.389 20.552-22.389 24.548-22.511 28.449-22.754L31.992-22.973 32.095-22.757 34.824-17.285 43.447 0H0Z"/>
<path transform="matrix(1,0,0,-1,725.7267,224.18262)" stroke-width="1" stroke-linecap="butt" stroke-miterlimit="10" stroke-linejoin="miter" fill="none" stroke="#ec5326" d="M0 0-24.224-9.486-1.783-38.573-38.755-38.634-51.176-63.549C-30.216-64.846 50.218-65.865 0 0Z"/>
<path transform="matrix(1,0,0,-1,702.3754,319.05049)" stroke-width="1" stroke-linecap="butt" stroke-miterlimit="10" stroke-linejoin="miter" fill="none" stroke="#ec5326" d="M0 0C21.266 0 39.362 15.479 42.663 36.476L43.682 42.951C42.959 41.941 42.198 40.961 41.403 40.019 36.077 33.637 27.73 28.94 16.49 26.016 10.991 24.583 4.823 23.572-1.944 22.988-6.548 22.589-11.429 22.389-16.566 22.389-20.551 22.389-24.548 22.511-28.449 22.754L-31.992 22.973-32.095 22.757-34.824 17.285-43.447 0H0Z"/>
<path transform="matrix(1,0,0,-1,351.5592,426.40388)" stroke-width="1" stroke-linecap="butt" stroke-miterlimit="10" stroke-linejoin="miter" fill="none" stroke="#ec5326" d="M0 0 24.223 9.486 1.783 38.573 38.755 38.634 51.176 63.549C30.216 64.846-50.218 65.865 0 0Z"/>
<path transform="matrix(1,0,0,-1,374.9105,331.5359)" stroke-width="1" stroke-linecap="butt" stroke-miterlimit="10" stroke-linejoin="miter" fill="none" stroke="#ec5326" d="M0 0C-21.266 0-39.362-15.479-42.663-36.476L-43.682-42.952C-42.959-41.941-42.198-40.961-41.403-40.019-36.077-33.637-27.73-28.94-16.49-26.016-10.991-24.583-4.823-23.572 1.944-22.988 6.548-22.589 11.429-22.389 16.566-22.389 20.552-22.389 24.548-22.511 28.449-22.754L31.992-22.973 32.095-22.757 34.824-17.285 43.447 0H0Z"/>
<path transform="matrix(1,0,0,-1,446.4983,331.5359)" stroke-width="1" stroke-linecap="butt" stroke-miterlimit="10" stroke-linejoin="miter" fill="none" stroke="#ec5326" d="M0 0-24.223-9.486-1.783-38.573-38.755-38.634-51.176-63.549C-30.216-64.846 50.218-65.866 0 0Z"/>
<path transform="matrix(1,0,0,-1,423.147,426.40388)" stroke-width="1" stroke-linecap="butt" stroke-miterlimit="10" stroke-linejoin="miter" fill="none" stroke="#ec5326" d="M0 0C21.266 0 39.362 15.479 42.663 36.476L43.682 42.951C42.959 41.941 42.198 40.961 41.403 40.019 36.077 33.637 27.73 28.94 16.49 26.016 10.991 24.583 4.823 23.572-1.944 22.988-6.548 22.589-11.429 22.389-16.566 22.389-20.552 22.389-24.548 22.511-28.449 22.754L-31.992 22.973-32.095 22.757-34.824 17.285-43.447 0H0Z"/>
<path transform="matrix(1,0,0,-1,492.0903,426.40388)" stroke-width="1" stroke-linecap="butt" stroke-miterlimit="10" stroke-linejoin="miter" fill="none" stroke="#ec5326" d="M0 0 24.223 9.486 1.783 38.573 38.755 38.634 51.176 63.549C30.216 64.846-50.218 65.865 0 0Z"/>
<path transform="matrix(1,0,0,-1,515.4416,331.5359)" stroke-width="1" stroke-linecap="butt" stroke-miterlimit="10" stroke-linejoin="miter" fill="none" stroke="#ec5326" d="M0 0C-21.266 0-39.362-15.479-42.663-36.476L-43.682-42.952C-42.959-41.941-42.198-40.961-41.403-40.019-36.077-33.637-27.73-28.94-16.49-26.016-10.991-24.583-4.823-23.572 1.944-22.988 6.548-22.589 11.429-22.389 16.566-22.389 20.552-22.389 24.548-22.511 28.449-22.754L31.992-22.973 32.095-22.757 34.824-17.285 43.447 0H0Z"/>
<path transform="matrix(1,0,0,-1,587.0294,331.5359)" stroke-width="1" stroke-linecap="butt" stroke-miterlimit="10" stroke-linejoin="miter" fill="none" stroke="#ec5326" d="M0 0-24.223-9.486-1.783-38.573-38.755-38.634-51.176-63.549C-30.216-64.846 50.218-65.866 0 0Z"/>
<path transform="matrix(1,0,0,-1,563.6781,426.40388)" stroke-width="1" stroke-linecap="butt" stroke-miterlimit="10" stroke-linejoin="miter" fill="none" stroke="#ec5326" d="M0 0C21.266 0 39.362 15.479 42.663 36.476L43.682 42.951C42.959 41.941 42.198 40.961 41.403 40.019 36.077 33.637 27.73 28.94 16.49 26.016 10.991 24.583 4.823 23.572-1.944 22.988-6.548 22.589-11.429 22.389-16.566 22.389-20.552 22.389-24.548 22.511-28.449 22.754L-31.992 22.973-32.095 22.757-34.824 17.285-43.447 0H0Z"/>
<path transform="matrix(1,0,0,-1,630.7877,426.40388)" stroke-width="1" stroke-linecap="butt" stroke-miterlimit="10" stroke-linejoin="miter" fill="none" stroke="#ec5326" d="M0 0 24.223 9.486 1.783 38.573 38.755 38.634 51.176 63.549C30.216 64.846-50.218 65.865 0 0Z"/>
<path transform="matrix(1,0,0,-1,654.1389,331.5359)" stroke-width="1" stroke-linecap="butt" stroke-miterlimit="10" stroke-linejoin="miter" fill="none" stroke="#ec5326" d="M0 0C-21.266 0-39.362-15.479-42.663-36.476L-43.682-42.952C-42.959-41.941-42.198-40.961-41.403-40.019-36.077-33.637-27.73-28.94-16.49-26.016-10.991-24.583-4.823-23.572 1.944-22.988 6.548-22.589 11.429-22.389 16.567-22.389 20.552-22.389 24.548-22.511 28.449-22.754L31.992-22.973 32.095-22.757 34.824-17.285 43.447 0H0Z"/>
<path transform="matrix(1,0,0,-1,725.7267,331.5359)" stroke-width="1" stroke-linecap="butt" stroke-miterlimit="10" stroke-linejoin="miter" fill="none" stroke="#ec5326" d="M0 0-24.224-9.486-1.783-38.573-38.755-38.634-51.176-63.549C-30.216-64.846 50.218-65.866 0 0Z"/>
<path transform="matrix(1,0,0,-1,702.3754,426.40388)" stroke-width="1" stroke-linecap="butt" stroke-miterlimit="10" stroke-linejoin="miter" fill="none" stroke="#ec5326" d="M0 0C21.266 0 39.362 15.479 42.663 36.476L43.682 42.951C42.959 41.941 42.198 40.961 41.403 40.019 36.077 33.637 27.73 28.94 16.49 26.016 10.991 24.583 4.823 23.572-1.944 22.988-6.548 22.589-11.429 22.389-16.566 22.389-20.551 22.389-24.548 22.511-28.449 22.754L-31.992 22.973-32.095 22.757-34.824 17.285-43.447 0H0Z"/>
<path transform="matrix(1,0,0,-1,776.3475,319.05049)" stroke-width="1" stroke-linecap="butt" stroke-miterlimit="10" stroke-linejoin="miter" fill="none" stroke="#ec5326" d="M0 0 24.223 9.486 1.783 38.573 38.755 38.634 51.176 63.549C30.216 64.846-50.218 65.865 0 0Z"/>
<path transform="matrix(1,0,0,-1,799.6988,224.18262)" stroke-width="1" stroke-linecap="butt" stroke-miterlimit="10" stroke-linejoin="miter" fill="none" stroke="#ec5326" d="M0 0C-21.266 0-39.362-15.479-42.663-36.476L-43.682-42.951C-42.959-41.941-42.198-40.961-41.403-40.019-36.077-33.637-27.73-28.94-16.49-26.016-10.991-24.583-4.823-23.572 1.944-22.988 6.548-22.589 11.429-22.389 16.566-22.389 20.552-22.389 24.548-22.511 28.449-22.754L31.992-22.973 32.095-22.757 34.824-17.285 43.447 0H0Z"/>
<path transform="matrix(1,0,0,-1,871.2866,224.18262)" stroke-width="1" stroke-linecap="butt" stroke-miterlimit="10" stroke-linejoin="miter" fill="none" stroke="#ec5326" d="M0 0-24.223-9.486-1.783-38.573-38.755-38.634-51.176-63.549C-30.216-64.846 50.218-65.865 0 0Z"/>
<path transform="matrix(1,0,0,-1,847.9353,319.05049)" stroke-width="1" stroke-linecap="butt" stroke-miterlimit="10" stroke-linejoin="miter" fill="none" stroke="#ec5326" d="M0 0C21.266 0 39.362 15.479 42.663 36.476L43.682 42.951C42.959 41.941 42.198 40.961 41.403 40.019 36.077 33.637 27.73 28.94 16.49 26.016 10.991 24.583 4.823 23.572-1.944 22.988-6.548 22.589-11.429 22.389-16.566 22.389-20.552 22.389-24.548 22.511-28.449 22.754L-31.992 22.973-32.095 22.757-34.824 17.285-43.447 0H0Z"/>
<path transform="matrix(1,0,0,-1,916.8786,319.05049)" stroke-width="1" stroke-linecap="butt" stroke-miterlimit="10" stroke-linejoin="miter" fill="none" stroke="#ec5326" d="M0 0 24.223 9.486 1.783 38.573 38.755 38.634 51.176 63.549C30.216 64.846-50.218 65.865 0 0Z"/>
<path transform="matrix(1,0,0,-1,940.2299,224.18262)" stroke-width="1" stroke-linecap="butt" stroke-miterlimit="10" stroke-linejoin="miter" fill="none" stroke="#ec5326" d="M0 0C-21.266 0-39.362-15.479-42.663-36.476L-43.682-42.951C-42.959-41.941-42.198-40.961-41.403-40.019-36.077-33.637-27.73-28.94-16.49-26.016-10.991-24.583-4.823-23.572 1.944-22.988 6.548-22.589 11.429-22.389 16.566-22.389 20.552-22.389 24.548-22.511 28.449-22.754L31.992-22.973 32.095-22.757 34.824-17.285 43.447 0H0Z"/>
<path transform="matrix(1,0,0,-1,1011.8176,224.18262)" stroke-width="1" stroke-linecap="butt" stroke-miterlimit="10" stroke-linejoin="miter" fill="none" stroke="#ec5326" d="M0 0-24.223-9.486-1.783-38.573-38.755-38.634-51.176-63.549C-30.216-64.846 50.218-65.865 0 0Z"/>
<path transform="matrix(1,0,0,-1,988.4664,319.05049)" stroke-width="1" stroke-linecap="butt" stroke-miterlimit="10" stroke-linejoin="miter" fill="none" stroke="#ec5326" d="M0 0C21.266 0 39.362 15.479 42.663 36.476L43.682 42.951C42.959 41.941 42.198 40.961 41.403 40.019 36.077 33.637 27.73 28.94 16.49 26.016 10.991 24.583 4.823 23.572-1.944 22.988-6.548 22.589-11.429 22.389-16.566 22.389-20.552 22.389-24.548 22.511-28.449 22.754L-31.992 22.973-32.095 22.757-34.824 17.285-43.447 0H0Z"/>
<path transform="matrix(1,0,0,-1,1055.5759,319.05049)" stroke-width="1" stroke-linecap="butt" stroke-miterlimit="10" stroke-linejoin="miter" fill="none" stroke="#ec5326" d="M0 0 24.224 9.486 1.783 38.573 38.755 38.634 51.176 63.549C30.216 64.846-50.218 65.865 0 0Z"/>
<path transform="matrix(1,0,0,-1,1078.9273,224.18262)" stroke-width="1" stroke-linecap="butt" stroke-miterlimit="10" stroke-linejoin="miter" fill="none" stroke="#ec5326" d="M0 0C-21.266 0-39.362-15.479-42.663-36.476L-43.682-42.951C-42.959-41.941-42.198-40.961-41.403-40.019-36.077-33.637-27.73-28.94-16.49-26.016-10.991-24.583-4.823-23.572 1.944-22.988 6.548-22.589 11.429-22.389 16.566-22.389 20.552-22.389 24.548-22.511 28.448-22.754L31.992-22.973 32.095-22.757 34.824-17.285 43.447 0H0Z"/>
<path transform="matrix(1,0,0,-1,1150.515,224.18262)" stroke-width="1" stroke-linecap="butt" stroke-miterlimit="10" stroke-linejoin="miter" fill="none" stroke="#ec5326" d="M0 0-24.224-9.486-1.783-38.573-38.755-38.634-51.176-63.549C-30.216-64.846 50.218-65.865 0 0Z"/>
<path transform="matrix(1,0,0,-1,1127.1637,319.05049)" stroke-width="1" stroke-linecap="butt" stroke-miterlimit="10" stroke-linejoin="miter" fill="none" stroke="#ec5326" d="M0 0C21.266 0 39.362 15.479 42.663 36.476L43.682 42.951C42.959 41.941 42.198 40.961 41.403 40.019 36.077 33.637 27.73 28.94 16.49 26.016 10.991 24.583 4.823 23.572-1.944 22.988-6.548 22.589-11.429 22.389-16.566 22.389-20.552 22.389-24.548 22.511-28.448 22.754L-31.992 22.973-32.095 22.757-34.824 17.285-43.447 0H0Z"/>
<path transform="matrix(1,0,0,-1,776.3475,426.40388)" stroke-width="1" stroke-linecap="butt" stroke-miterlimit="10" stroke-linejoin="miter" fill="none" stroke="#ec5326" d="M0 0 24.223 9.486 1.783 38.573 38.755 38.634 51.176 63.549C30.216 64.846-50.218 65.865 0 0Z"/>
<path transform="matrix(1,0,0,-1,799.6988,331.5359)" stroke-width="1" stroke-linecap="butt" stroke-miterlimit="10" stroke-linejoin="miter" fill="none" stroke="#ec5326" d="M0 0C-21.266 0-39.362-15.479-42.663-36.476L-43.682-42.952C-42.959-41.941-42.198-40.961-41.403-40.019-36.077-33.637-27.73-28.94-16.49-26.016-10.991-24.583-4.823-23.572 1.944-22.988 6.548-22.589 11.429-22.389 16.566-22.389 20.552-22.389 24.548-22.511 28.449-22.754L31.992-22.973 32.095-22.757 34.824-17.285 43.447 0H0Z"/>
<path transform="matrix(1,0,0,-1,871.2866,331.5359)" stroke-width="1" stroke-linecap="butt" stroke-miterlimit="10" stroke-linejoin="miter" fill="none" stroke="#ec5326" d="M0 0-24.223-9.486-1.783-38.573-38.755-38.634-51.176-63.549C-30.216-64.846 50.218-65.866 0 0Z"/>
<path transform="matrix(1,0,0,-1,847.9353,426.40388)" stroke-width="1" stroke-linecap="butt" stroke-miterlimit="10" stroke-linejoin="miter" fill="none" stroke="#ec5326" d="M0 0C21.266 0 39.362 15.479 42.663 36.476L43.682 42.951C42.959 41.941 42.198 40.961 41.403 40.019 36.077 33.637 27.73 28.94 16.49 26.016 10.991 24.583 4.823 23.572-1.944 22.988-6.548 22.589-11.429 22.389-16.566 22.389-20.552 22.389-24.548 22.511-28.449 22.754L-31.992 22.973-32.095 22.757-34.824 17.285-43.447 0H0Z"/>
<path transform="matrix(1,0,0,-1,916.8786,426.40388)" stroke-width="1" stroke-linecap="butt" stroke-miterlimit="10" stroke-linejoin="miter" fill="none" stroke="#ec5326" d="M0 0 24.223 9.486 1.783 38.573 38.755 38.634 51.176 63.549C30.216 64.846-50.218 65.865 0 0Z"/>
<path transform="matrix(1,0,0,-1,940.2299,331.5359)" stroke-width="1" stroke-linecap="butt" stroke-miterlimit="10" stroke-linejoin="miter" fill="none" stroke="#ec5326" d="M0 0C-21.266 0-39.362-15.479-42.663-36.476L-43.682-42.952C-42.959-41.941-42.198-40.961-41.403-40.019-36.077-33.637-27.73-28.94-16.49-26.016-10.991-24.583-4.823-23.572 1.944-22.988 6.548-22.589 11.429-22.389 16.566-22.389 20.552-22.389 24.548-22.511 28.449-22.754L31.992-22.973 32.095-22.757 34.824-17.285 43.447 0H0Z"/>
<path transform="matrix(1,0,0,-1,1011.8176,331.5359)" stroke-width="1" stroke-linecap="butt" stroke-miterlimit="10" stroke-linejoin="miter" fill="none" stroke="#ec5326" d="M0 0-24.223-9.486-1.783-38.573-38.755-38.634-51.176-63.549C-30.216-64.846 50.218-65.866 0 0Z"/>
<path transform="matrix(1,0,0,-1,988.4664,426.40388)" stroke-width="1" stroke-linecap="butt" stroke-miterlimit="10" stroke-linejoin="miter" fill="none" stroke="#ec5326" d="M0 0C21.266 0 39.362 15.479 42.663 36.476L43.682 42.951C42.959 41.941 42.198 40.961 41.403 40.019 36.077 33.637 27.73 28.94 16.49 26.016 10.991 24.583 4.823 23.572-1.944 22.988-6.548 22.589-11.429 22.389-16.566 22.389-20.552 22.389-24.548 22.511-28.449 22.754L-31.992 22.973-32.095 22.757-34.824 17.285-43.447 0H0Z"/>
<path transform="matrix(1,0,0,-1,1055.5759,426.40388)" stroke-width="1" stroke-linecap="butt" stroke-miterlimit="10" stroke-linejoin="miter" fill="none" stroke="#ec5326" d="M0 0 24.224 9.486 1.783 38.573 38.755 38.634 51.176 63.549C30.216 64.846-50.218 65.865 0 0Z"/>
<path transform="matrix(1,0,0,-1,1078.9273,331.5359)" stroke-width="1" stroke-linecap="butt" stroke-miterlimit="10" stroke-linejoin="miter" fill="none" stroke="#ec5326" d="M0 0C-21.266 0-39.362-15.479-42.663-36.476L-43.682-42.952C-42.959-41.941-42.198-40.961-41.403-40.019-36.077-33.637-27.73-28.94-16.49-26.016-10.991-24.583-4.823-23.572 1.944-22.988 6.548-22.589 11.429-22.389 16.566-22.389 20.552-22.389 24.548-22.511 28.448-22.754L31.992-22.973 32.095-22.757 34.824-17.285 43.447 0H0Z"/>
<path transform="matrix(1,0,0,-1,1150.515,331.5359)" stroke-width="1" stroke-linecap="butt" stroke-miterlimit="10" stroke-linejoin="miter" fill="none" stroke="#ec5326" d="M0 0-24.224-9.486-1.783-38.573-38.755-38.634-51.176-63.549C-30.216-64.846 50.218-65.866 0 0Z"/>
<path transform="matrix(1,0,0,-1,1127.1637,426.40388)" stroke-width="1" stroke-linecap="butt" stroke-miterlimit="10" stroke-linejoin="miter" fill="none" stroke="#ec5326" d="M0 0C21.266 0 39.362 15.479 42.663 36.476L43.682 42.951C42.959 41.941 42.198 40.961 41.403 40.019 36.077 33.637 27.73 28.94 16.49 26.016 10.991 24.583 4.823 23.572-1.944 22.988-6.548 22.589-11.429 22.389-16.566 22.389-20.552 22.389-24.548 22.511-28.448 22.754L-31.992 22.973-32.095 22.757-34.824 17.285-43.447 0H0Z"/>
<path transform="matrix(1,0,0,-1,351.5592,533.7573)" stroke-width="1" stroke-linecap="butt" stroke-miterlimit="10" stroke-linejoin="miter" fill="none" stroke="#ec5326" d="M0 0 24.223 9.486 1.783 38.573 38.755 38.634 51.176 63.549C30.216 64.846-50.218 65.865 0 0Z"/>
<path transform="matrix(1,0,0,-1,374.9105,438.88929)" stroke-width="1" stroke-linecap="butt" stroke-miterlimit="10" stroke-linejoin="miter" fill="none" stroke="#ec5326" d="M0 0C-21.266 0-39.362-15.479-42.663-36.476L-43.682-42.952C-42.959-41.941-42.198-40.961-41.403-40.019-36.077-33.637-27.73-28.94-16.49-26.016-10.991-24.583-4.823-23.572 1.944-22.988 6.548-22.589 11.429-22.389 16.566-22.389 20.552-22.389 24.548-22.511 28.449-22.754L31.992-22.973 32.095-22.757 34.824-17.285 43.447 0H0Z"/>
<path transform="matrix(1,0,0,-1,446.4983,438.88929)" stroke-width="1" stroke-linecap="butt" stroke-miterlimit="10" stroke-linejoin="miter" fill="none" stroke="#ec5326" d="M0 0-24.223-9.486-1.783-38.573-38.755-38.634-51.176-63.549C-30.216-64.846 50.218-65.865 0 0Z"/>
<path transform="matrix(1,0,0,-1,423.147,533.7573)" stroke-width="1" stroke-linecap="butt" stroke-miterlimit="10" stroke-linejoin="miter" fill="none" stroke="#ec5326" d="M0 0C21.266 0 39.362 15.479 42.663 36.476L43.682 42.952C42.959 41.941 42.198 40.961 41.403 40.019 36.077 33.637 27.73 28.94 16.49 26.016 10.991 24.583 4.823 23.572-1.944 22.988-6.548 22.589-11.429 22.389-16.566 22.389-20.552 22.389-24.548 22.511-28.449 22.754L-31.992 22.973-32.095 22.757-34.824 17.285-43.447 0H0Z"/>
<path transform="matrix(1,0,0,-1,492.0903,533.7573)" stroke-width="1" stroke-linecap="butt" stroke-miterlimit="10" stroke-linejoin="miter" fill="none" stroke="#ec5326" d="M0 0 24.223 9.486 1.783 38.573 38.755 38.634 51.176 63.549C30.216 64.846-50.218 65.865 0 0Z"/>
<path transform="matrix(1,0,0,-1,515.4416,438.88929)" stroke-width="1" stroke-linecap="butt" stroke-miterlimit="10" stroke-linejoin="miter" fill="none" stroke="#ec5326" d="M0 0C-21.266 0-39.362-15.479-42.663-36.476L-43.682-42.952C-42.959-41.941-42.198-40.961-41.403-40.019-36.077-33.637-27.73-28.94-16.49-26.016-10.991-24.583-4.823-23.572 1.944-22.988 6.548-22.589 11.429-22.389 16.566-22.389 20.552-22.389 24.548-22.511 28.449-22.754L31.992-22.973 32.095-22.757 34.824-17.285 43.447 0H0Z"/>
<path transform="matrix(1,0,0,-1,587.0294,438.88929)" stroke-width="1" stroke-linecap="butt" stroke-miterlimit="10" stroke-linejoin="miter" fill="none" stroke="#ec5326" d="M0 0-24.223-9.486-1.783-38.573-38.755-38.634-51.176-63.549C-30.216-64.846 50.218-65.865 0 0Z"/>
<path transform="matrix(1,0,0,-1,563.6781,533.7573)" stroke-width="1" stroke-linecap="butt" stroke-miterlimit="10" stroke-linejoin="miter" fill="none" stroke="#ec5326" d="M0 0C21.266 0 39.362 15.479 42.663 36.476L43.682 42.952C42.959 41.941 42.198 40.961 41.403 40.019 36.077 33.637 27.73 28.94 16.49 26.016 10.991 24.583 4.823 23.572-1.944 22.988-6.548 22.589-11.429 22.389-16.566 22.389-20.552 22.389-24.548 22.511-28.449 22.754L-31.992 22.973-32.095 22.757-34.824 17.285-43.447 0H0Z"/>
<path transform="matrix(1,0,0,-1,630.7877,533.7573)" stroke-width="1" stroke-linecap="butt" stroke-miterlimit="10" stroke-linejoin="miter" fill="none" stroke="#ec5326" d="M0 0 24.223 9.486 1.783 38.573 38.755 38.634 51.176 63.549C30.216 64.846-50.218 65.865 0 0Z"/>
<path transform="matrix(1,0,0,-1,654.1389,438.88929)" stroke-width="1" stroke-linecap="butt" stroke-miterlimit="10" stroke-linejoin="miter" fill="none" stroke="#ec5326" d="M0 0C-21.266 0-39.362-15.479-42.663-36.476L-43.682-42.952C-42.959-41.941-42.198-40.961-41.403-40.019-36.077-33.637-27.73-28.94-16.49-26.016-10.991-24.583-4.823-23.572 1.944-22.988 6.548-22.589 11.429-22.389 16.567-22.389 20.552-22.389 24.548-22.511 28.449-22.754L31.992-22.973 32.095-22.757 34.824-17.285 43.447 0H0Z"/>
<path transform="matrix(1,0,0,-1,725.7267,438.88929)" stroke-width="1" stroke-linecap="butt" stroke-miterlimit="10" stroke-linejoin="miter" fill="none" stroke="#ec5326" d="M0 0-24.224-9.486-1.783-38.573-38.755-38.634-51.176-63.549C-30.216-64.846 50.218-65.865 0 0Z"/>
<path transform="matrix(1,0,0,-1,702.3754,533.7573)" stroke-width="1" stroke-linecap="butt" stroke-miterlimit="10" stroke-linejoin="miter" fill="none" stroke="#ec5326" d="M0 0C21.266 0 39.362 15.479 42.663 36.476L43.682 42.952C42.959 41.941 42.198 40.961 41.403 40.019 36.077 33.637 27.73 28.94 16.49 26.016 10.991 24.583 4.823 23.572-1.944 22.988-6.548 22.589-11.429 22.389-16.566 22.389-20.551 22.389-24.548 22.511-28.449 22.754L-31.992 22.973-32.095 22.757-34.824 17.285-43.447 0H0Z"/>
<path transform="matrix(1,0,0,-1,776.3475,533.7573)" stroke-width="1" stroke-linecap="butt" stroke-miterlimit="10" stroke-linejoin="miter" fill="none" stroke="#ec5326" d="M0 0 24.223 9.486 1.783 38.573 38.755 38.634 51.176 63.549C30.216 64.846-50.218 65.865 0 0Z"/>
<path transform="matrix(1,0,0,-1,799.6988,438.88929)" stroke-width="1" stroke-linecap="butt" stroke-miterlimit="10" stroke-linejoin="miter" fill="none" stroke="#ec5326" d="M0 0C-21.266 0-39.362-15.479-42.663-36.476L-43.682-42.952C-42.959-41.941-42.198-40.961-41.403-40.019-36.077-33.637-27.73-28.94-16.49-26.016-10.991-24.583-4.823-23.572 1.944-22.988 6.548-22.589 11.429-22.389 16.566-22.389 20.552-22.389 24.548-22.511 28.449-22.754L31.992-22.973 32.095-22.757 34.824-17.285 43.447 0H0Z"/>
<path transform="matrix(1,0,0,-1,871.2866,438.88929)" stroke-width="1" stroke-linecap="butt" stroke-miterlimit="10" stroke-linejoin="miter" fill="none" stroke="#ec5326" d="M0 0-24.223-9.486-1.783-38.573-38.755-38.634-51.176-63.549C-30.216-64.846 50.218-65.865 0 0Z"/>
<path transform="matrix(1,0,0,-1,847.9353,533.7573)" stroke-width="1" stroke-linecap="butt" stroke-miterlimit="10" stroke-linejoin="miter" fill="none" stroke="#ec5326" d="M0 0C21.266 0 39.362 15.479 42.663 36.476L43.682 42.952C42.959 41.941 42.198 40.961 41.403 40.019 36.077 33.637 27.73 28.94 16.49 26.016 10.991 24.583 4.823 23.572-1.944 22.988-6.548 22.589-11.429 22.389-16.566 22.389-20.552 22.389-24.548 22.511-28.449 22.754L-31.992 22.973-32.095 22.757-34.824 17.285-43.447 0H0Z"/>
<path transform="matrix(1,0,0,-1,916.8786,533.7573)" stroke-width="1" stroke-linecap="butt" stroke-miterlimit="10" stroke-linejoin="miter" fill="none" stroke="#ec5326" d="M0 0 24.223 9.486 1.783 38.573 38.755 38.634 51.176 63.549C30.216 64.846-50.218 65.865 0 0Z"/>
<path transform="matrix(1,0,0,-1,940.2299,438.88929)" stroke-width="1" stroke-linecap="butt" stroke-miterlimit="10" stroke-linejoin="miter" fill="none" stroke="#ec5326" d="M0 0C-21.266 0-39.362-15.479-42.663-36.476L-43.682-42.952C-42.959-41.941-42.198-40.961-41.403-40.019-36.077-33.637-27.73-28.94-16.49-26.016-10.991-24.583-4.823-23.572 1.944-22.988 6.548-22.589 11.429-22.389 16.566-22.389 20.552-22.389 24.548-22.511 28.449-22.754L31.992-22.973 32.095-22.757 34.824-17.285 43.447 0H0Z"/>
<path transform="matrix(1,0,0,-1,1011.8176,438.88929)" stroke-width="1" stroke-linecap="butt" stroke-miterlimit="10" stroke-linejoin="miter" fill="none" stroke="#ec5326" d="M0 0-24.223-9.486-1.783-38.573-38.755-38.634-51.176-63.549C-30.216-64.846 50.218-65.865 0 0Z"/>
<path transform="matrix(1,0,0,-1,988.4664,533.7573)" stroke-width="1" stroke-linecap="butt" stroke-miterlimit="10" stroke-linejoin="miter" fill="none" stroke="#ec5326" d="M0 0C21.266 0 39.362 15.479 42.663 36.476L43.682 42.952C42.959 41.941 42.198 40.961 41.403 40.019 36.077 33.637 27.73 28.94 16.49 26.016 10.991 24.583 4.823 23.572-1.944 22.988-6.548 22.589-11.429 22.389-16.566 22.389-20.552 22.389-24.548 22.511-28.449 22.754L-31.992 22.973-32.095 22.757-34.824 17.285-43.447 0H0Z"/>
<path transform="matrix(1,0,0,-1,1055.5759,533.7573)" stroke-width="1" stroke-linecap="butt" stroke-miterlimit="10" stroke-linejoin="miter" fill="none" stroke="#ec5326" d="M0 0 24.224 9.486 1.783 38.573 38.755 38.634 51.176 63.549C30.216 64.846-50.218 65.865 0 0Z"/>
<path transform="matrix(1,0,0,-1,1078.9273,438.88929)" stroke-width="1" stroke-linecap="butt" stroke-miterlimit="10" stroke-linejoin="miter" fill="none" stroke="#ec5326" d="M0 0C-21.266 0-39.362-15.479-42.663-36.476L-43.682-42.952C-42.959-41.941-42.198-40.961-41.403-40.019-36.077-33.637-27.73-28.94-16.49-26.016-10.991-24.583-4.823-23.572 1.944-22.988 6.548-22.589 11.429-22.389 16.566-22.389 20.552-22.389 24.548-22.511 28.448-22.754L31.992-22.973 32.095-22.757 34.824-17.285 43.447 0H0Z"/>
<path transform="matrix(1,0,0,-1,1150.515,438.88929)" stroke-width="1" stroke-linecap="butt" stroke-miterlimit="10" stroke-linejoin="miter" fill="none" stroke="#ec5326" d="M0 0-24.224-9.486-1.783-38.573-38.755-38.634-51.176-63.549C-30.216-64.846 50.218-65.865 0 0Z"/>
<path transform="matrix(1,0,0,-1,1127.1637,533.7573)" stroke-width="1" stroke-linecap="butt" stroke-miterlimit="10" stroke-linejoin="miter" fill="none" stroke="#ec5326" d="M0 0C21.266 0 39.362 15.479 42.663 36.476L43.682 42.952C42.959 41.941 42.198 40.961 41.403 40.019 36.077 33.637 27.73 28.94 16.49 26.016 10.991 24.583 4.823 23.572-1.944 22.988-6.548 22.589-11.429 22.389-16.566 22.389-20.552 22.389-24.548 22.511-28.448 22.754L-31.992 22.973-32.095 22.757-34.824 17.285-43.447 0H0Z"/>
<path transform="matrix(1,0,0,-1,1194.2733,319.05049)" stroke-width="1" stroke-linecap="butt" stroke-miterlimit="10" stroke-linejoin="miter" fill="none" stroke="#ec5326" d="M0 0 24.223 9.486 1.783 38.573 38.755 38.634 51.176 63.549C30.216 64.846-50.218 65.865 0 0Z"/>
<path transform="matrix(1,0,0,-1,1217.6245,224.18262)" stroke-width="1" stroke-linecap="butt" stroke-miterlimit="10" stroke-linejoin="miter" fill="none" stroke="#ec5326" d="M0 0C-21.266 0-39.362-15.479-42.663-36.476L-43.682-42.951C-42.959-41.941-42.198-40.961-41.403-40.019-36.077-33.637-27.73-28.94-16.49-26.016-10.99-24.583-4.823-23.572 1.944-22.988 6.548-22.589 11.429-22.389 16.567-22.389 20.552-22.389 24.548-22.511 28.449-22.754L31.992-22.973 32.095-22.757 34.824-17.285 43.447 0H0Z"/>
<path transform="matrix(1,0,0,-1,1289.2123,224.18262)" stroke-width="1" stroke-linecap="butt" stroke-miterlimit="10" stroke-linejoin="miter" fill="none" stroke="#ec5326" d="M0 0-24.223-9.486-1.783-38.573-38.755-38.634-51.176-63.549C-30.216-64.846 50.218-65.865 0 0Z"/>
<path transform="matrix(1,0,0,-1,1265.8611,319.05049)" stroke-width="1" stroke-linecap="butt" stroke-miterlimit="10" stroke-linejoin="miter" fill="none" stroke="#ec5326" d="M0 0C21.266 0 39.362 15.479 42.663 36.476L43.682 42.951C42.959 41.941 42.198 40.961 41.403 40.019 36.077 33.637 27.73 28.94 16.49 26.016 10.991 24.583 4.823 23.572-1.944 22.988-6.548 22.589-11.429 22.389-16.567 22.389-20.552 22.389-24.548 22.511-28.449 22.754L-31.992 22.973-32.095 22.757-34.824 17.285-43.447 0H0Z"/>
<path transform="matrix(1,0,0,-1,1334.8043,319.05049)" stroke-width="1" stroke-linecap="butt" stroke-miterlimit="10" stroke-linejoin="miter" fill="none" stroke="#ec5326" d="M0 0 24.224 9.486 1.783 38.573 38.755 38.634 51.176 63.549C30.216 64.846-50.218 65.865 0 0Z"/>
<path transform="matrix(1,0,0,-1,1358.1557,224.18262)" stroke-width="1" stroke-linecap="butt" stroke-miterlimit="10" stroke-linejoin="miter" fill="none" stroke="#ec5326" d="M0 0C-21.266 0-39.362-15.479-42.663-36.476L-43.682-42.951C-42.959-41.941-42.198-40.961-41.403-40.019-36.077-33.637-27.73-28.94-16.49-26.016-10.991-24.583-4.823-23.572 1.944-22.988 6.548-22.589 11.429-22.389 16.567-22.389 20.552-22.389 24.548-22.511 28.449-22.754L31.992-22.973 32.095-22.757 34.824-17.285 43.447 0H0Z"/>
<path transform="matrix(1,0,0,-1,1429.7434,224.18262)" stroke-width="1" stroke-linecap="butt" stroke-miterlimit="10" stroke-linejoin="miter" fill="none" stroke="#ec5326" d="M0 0-24.224-9.486-1.783-38.573-38.755-38.634-51.176-63.549C-30.216-64.846 50.218-65.865 0 0Z"/>
<path transform="matrix(1,0,0,-1,1406.3922,319.05049)" stroke-width="1" stroke-linecap="butt" stroke-miterlimit="10" stroke-linejoin="miter" fill="none" stroke="#ec5326" d="M0 0C21.266 0 39.362 15.479 42.663 36.476L43.682 42.951C42.959 41.941 42.198 40.961 41.403 40.019 36.077 33.637 27.73 28.94 16.49 26.016 10.99 24.583 4.823 23.572-1.944 22.988-6.548 22.589-11.429 22.389-16.567 22.389-20.552 22.389-24.548 22.511-28.449 22.754L-31.992 22.973-32.095 22.757-34.824 17.285-43.447 0H0Z"/>
<path transform="matrix(1,0,0,-1,1473.5017,319.05049)" stroke-width="1" stroke-linecap="butt" stroke-miterlimit="10" stroke-linejoin="miter" fill="none" stroke="#ec5326" d="M0 0 24.224 9.486 1.783 38.573 38.755 38.634 51.176 63.549C30.216 64.846-50.218 65.865 0 0Z"/>
<path transform="matrix(1,0,0,-1,1496.853,224.18262)" stroke-width="1" stroke-linecap="butt" stroke-miterlimit="10" stroke-linejoin="miter" fill="none" stroke="#ec5326" d="M0 0C-21.266 0-39.362-15.479-42.663-36.476L-43.682-42.951C-42.959-41.941-42.198-40.961-41.403-40.019-36.077-33.637-27.73-28.94-16.49-26.016-10.991-24.583-4.823-23.572 1.944-22.988 6.548-22.589 11.429-22.389 16.566-22.389 20.552-22.389 24.548-22.511 28.448-22.754L31.992-22.973 32.095-22.757 34.824-17.285 43.447 0H0Z"/>
<path transform="matrix(1,0,0,-1,1568.4408,224.18262)" stroke-width="1" stroke-linecap="butt" stroke-miterlimit="10" stroke-linejoin="miter" fill="none" stroke="#ec5326" d="M0 0-24.224-9.486-1.783-38.573-38.755-38.634-51.176-63.549C-30.216-64.846 50.218-65.865 0 0Z"/>
<path transform="matrix(1,0,0,-1,1545.0895,319.05049)" stroke-width="1" stroke-linecap="butt" stroke-miterlimit="10" stroke-linejoin="miter" fill="none" stroke="#ec5326" d="M0 0C21.266 0 39.362 15.479 42.663 36.476L43.682 42.951C42.959 41.941 42.198 40.961 41.403 40.019 36.077 33.637 27.73 28.94 16.49 26.016 10.991 24.583 4.823 23.572-1.944 22.988-6.548 22.589-11.429 22.389-16.567 22.389-20.552 22.389-24.548 22.511-28.449 22.754L-31.992 22.973-32.095 22.757-34.824 17.285-43.447 0H0Z"/>
<path transform="matrix(1,0,0,-1,1194.2733,426.40388)" stroke-width="1" stroke-linecap="butt" stroke-miterlimit="10" stroke-linejoin="miter" fill="none" stroke="#ec5326" d="M0 0 24.223 9.486 1.783 38.573 38.755 38.634 51.176 63.549C30.216 64.846-50.218 65.865 0 0Z"/>
<path transform="matrix(1,0,0,-1,1217.6245,331.5359)" stroke-width="1" stroke-linecap="butt" stroke-miterlimit="10" stroke-linejoin="miter" fill="none" stroke="#ec5326" d="M0 0C-21.266 0-39.362-15.479-42.663-36.476L-43.682-42.952C-42.959-41.941-42.198-40.961-41.403-40.019-36.077-33.637-27.73-28.94-16.49-26.016-10.99-24.583-4.823-23.572 1.944-22.988 6.548-22.589 11.429-22.389 16.567-22.389 20.552-22.389 24.548-22.511 28.449-22.754L31.992-22.973 32.095-22.757 34.824-17.285 43.447 0H0Z"/>
<path transform="matrix(1,0,0,-1,1289.2123,331.5359)" stroke-width="1" stroke-linecap="butt" stroke-miterlimit="10" stroke-linejoin="miter" fill="none" stroke="#ec5326" d="M0 0-24.223-9.486-1.783-38.573-38.755-38.634-51.176-63.549C-30.216-64.846 50.218-65.866 0 0Z"/>
<path transform="matrix(1,0,0,-1,1265.8611,426.40388)" stroke-width="1" stroke-linecap="butt" stroke-miterlimit="10" stroke-linejoin="miter" fill="none" stroke="#ec5326" d="M0 0C21.266 0 39.362 15.479 42.663 36.476L43.682 42.951C42.959 41.941 42.198 40.961 41.403 40.019 36.077 33.637 27.73 28.94 16.49 26.016 10.991 24.583 4.823 23.572-1.944 22.988-6.548 22.589-11.429 22.389-16.567 22.389-20.552 22.389-24.548 22.511-28.449 22.754L-31.992 22.973-32.095 22.757-34.824 17.285-43.447 0H0Z"/>
<path transform="matrix(1,0,0,-1,1334.8043,426.40388)" stroke-width="1" stroke-linecap="butt" stroke-miterlimit="10" stroke-linejoin="miter" fill="none" stroke="#ec5326" d="M0 0 24.224 9.486 1.783 38.573 38.755 38.634 51.176 63.549C30.216 64.846-50.218 65.865 0 0Z"/>
<path transform="matrix(1,0,0,-1,1358.1557,331.5359)" stroke-width="1" stroke-linecap="butt" stroke-miterlimit="10" stroke-linejoin="miter" fill="none" stroke="#ec5326" d="M0 0C-21.266 0-39.362-15.479-42.663-36.476L-43.682-42.952C-42.959-41.941-42.198-40.961-41.403-40.019-36.077-33.637-27.73-28.94-16.49-26.016-10.991-24.583-4.823-23.572 1.944-22.988 6.548-22.589 11.429-22.389 16.567-22.389 20.552-22.389 24.548-22.511 28.449-22.754L31.992-22.973 32.095-22.757 34.824-17.285 43.447 0H0Z"/>
<path transform="matrix(1,0,0,-1,1429.7434,331.5359)" stroke-width="1" stroke-linecap="butt" stroke-miterlimit="10" stroke-linejoin="miter" fill="none" stroke="#ec5326" d="M0 0-24.224-9.486-1.783-38.573-38.755-38.634-51.176-63.549C-30.216-64.846 50.218-65.866 0 0Z"/>
<path transform="matrix(1,0,0,-1,1406.3922,426.40388)" stroke-width="1" stroke-linecap="butt" stroke-miterlimit="10" stroke-linejoin="miter" fill="none" stroke="#ec5326" d="M0 0C21.266 0 39.362 15.479 42.663 36.476L43.682 42.951C42.959 41.941 42.198 40.961 41.403 40.019 36.077 33.637 27.73 28.94 16.49 26.016 10.99 24.583 4.823 23.572-1.944 22.988-6.548 22.589-11.429 22.389-16.567 22.389-20.552 22.389-24.548 22.511-28.449 22.754L-31.992 22.973-32.095 22.757-34.824 17.285-43.447 0H0Z"/>
<path transform="matrix(1,0,0,-1,1473.5017,426.40388)" stroke-width="1" stroke-linecap="butt" stroke-miterlimit="10" stroke-linejoin="miter" fill="none" stroke="#ec5326" d="M0 0 24.224 9.486 1.783 38.573 38.755 38.634 51.176 63.549C30.216 64.846-50.218 65.865 0 0Z"/>
<path transform="matrix(1,0,0,-1,1496.853,331.5359)" stroke-width="1" stroke-linecap="butt" stroke-miterlimit="10" stroke-linejoin="miter" fill="none" stroke="#ec5326" d="M0 0C-21.266 0-39.362-15.479-42.663-36.476L-43.682-42.952C-42.959-41.941-42.198-40.961-41.403-40.019-36.077-33.637-27.73-28.94-16.49-26.016-10.991-24.583-4.823-23.572 1.944-22.988 6.548-22.589 11.429-22.389 16.566-22.389 20.552-22.389 24.548-22.511 28.448-22.754L31.992-22.973 32.095-22.757 34.824-17.285 43.447 0H0Z"/>
<path transform="matrix(1,0,0,-1,1568.4408,331.5359)" stroke-width="1" stroke-linecap="butt" stroke-miterlimit="10" stroke-linejoin="miter" fill="none" stroke="#ec5326" d="M0 0-24.224-9.486-1.783-38.573-38.755-38.634-51.176-63.549C-30.216-64.846 50.218-65.866 0 0Z"/>
<path transform="matrix(1,0,0,-1,1545.0895,426.40388)" stroke-width="1" stroke-linecap="butt" stroke-miterlimit="10" stroke-linejoin="miter" fill="none" stroke="#ec5326" d="M0 0C21.266 0 39.362 15.479 42.663 36.476L43.682 42.951C42.959 41.941 42.198 40.961 41.403 40.019 36.077 33.637 27.73 28.94 16.49 26.016 10.991 24.583 4.823 23.572-1.944 22.988-6.548 22.589-11.429 22.389-16.567 22.389-20.552 22.389-24.548 22.511-28.449 22.754L-31.992 22.973-32.095 22.757-34.824 17.285-43.447 0H0Z"/>
<path transform="matrix(1,0,0,-1,1194.2733,533.7573)" stroke-width="1" stroke-linecap="butt" stroke-miterlimit="10" stroke-linejoin="miter" fill="none" stroke="#ec5326" d="M0 0 24.223 9.486 1.783 38.573 38.755 38.634 51.176 63.549C30.216 64.846-50.218 65.865 0 0Z"/>
<path transform="matrix(1,0,0,-1,1217.6245,438.88929)" stroke-width="1" stroke-linecap="butt" stroke-miterlimit="10" stroke-linejoin="miter" fill="none" stroke="#ec5326" d="M0 0C-21.266 0-39.362-15.479-42.663-36.476L-43.682-42.952C-42.959-41.941-42.198-40.961-41.403-40.019-36.077-33.637-27.73-28.94-16.49-26.016-10.99-24.583-4.823-23.572 1.944-22.988 6.548-22.589 11.429-22.389 16.567-22.389 20.552-22.389 24.548-22.511 28.449-22.754L31.992-22.973 32.095-22.757 34.824-17.285 43.447 0H0Z"/>
<path transform="matrix(1,0,0,-1,1289.2123,438.88929)" stroke-width="1" stroke-linecap="butt" stroke-miterlimit="10" stroke-linejoin="miter" fill="none" stroke="#ec5326" d="M0 0-24.223-9.486-1.783-38.573-38.755-38.634-51.176-63.549C-30.216-64.846 50.218-65.865 0 0Z"/>
<path transform="matrix(1,0,0,-1,1265.8611,533.7573)" stroke-width="1" stroke-linecap="butt" stroke-miterlimit="10" stroke-linejoin="miter" fill="none" stroke="#ec5326" d="M0 0C21.266 0 39.362 15.479 42.663 36.476L43.682 42.952C42.959 41.941 42.198 40.961 41.403 40.019 36.077 33.637 27.73 28.94 16.49 26.016 10.991 24.583 4.823 23.572-1.944 22.988-6.548 22.589-11.429 22.389-16.567 22.389-20.552 22.389-24.548 22.511-28.449 22.754L-31.992 22.973-32.095 22.757-34.824 17.285-43.447 0H0Z"/>
<path transform="matrix(1,0,0,-1,1334.8043,533.7573)" stroke-width="1" stroke-linecap="butt" stroke-miterlimit="10" stroke-linejoin="miter" fill="none" stroke="#ec5326" d="M0 0 24.224 9.486 1.783 38.573 38.755 38.634 51.176 63.549C30.216 64.846-50.218 65.865 0 0Z"/>
<path transform="matrix(1,0,0,-1,1358.1557,438.88929)" stroke-width="1" stroke-linecap="butt" stroke-miterlimit="10" stroke-linejoin="miter" fill="none" stroke="#ec5326" d="M0 0C-21.266 0-39.362-15.479-42.663-36.476L-43.682-42.952C-42.959-41.941-42.198-40.961-41.403-40.019-36.077-33.637-27.73-28.94-16.49-26.016-10.991-24.583-4.823-23.572 1.944-22.988 6.548-22.589 11.429-22.389 16.567-22.389 20.552-22.389 24.548-22.511 28.449-22.754L31.992-22.973 32.095-22.757 34.824-17.285 43.447 0H0Z"/>
<path transform="matrix(1,0,0,-1,1429.7434,438.88929)" stroke-width="1" stroke-linecap="butt" stroke-miterlimit="10" stroke-linejoin="miter" fill="none" stroke="#ec5326" d="M0 0-24.224-9.486-1.783-38.573-38.755-38.634-51.176-63.549C-30.216-64.846 50.218-65.865 0 0Z"/>
<path transform="matrix(1,0,0,-1,1406.3922,533.7573)" stroke-width="1" stroke-linecap="butt" stroke-miterlimit="10" stroke-linejoin="miter" fill="none" stroke="#ec5326" d="M0 0C21.266 0 39.362 15.479 42.663 36.476L43.682 42.952C42.959 41.941 42.198 40.961 41.403 40.019 36.077 33.637 27.73 28.94 16.49 26.016 10.99 24.583 4.823 23.572-1.944 22.988-6.548 22.589-11.429 22.389-16.567 22.389-20.552 22.389-24.548 22.511-28.449 22.754L-31.992 22.973-32.095 22.757-34.824 17.285-43.447 0H0Z"/>
<path transform="matrix(1,0,0,-1,1473.5017,533.7573)" stroke-width="1" stroke-linecap="butt" stroke-miterlimit="10" stroke-linejoin="miter" fill="none" stroke="#ec5326" d="M0 0 24.224 9.486 1.783 38.573 38.755 38.634 51.176 63.549C30.216 64.846-50.218 65.865 0 0Z"/>
<path transform="matrix(1,0,0,-1,1496.853,438.88929)" stroke-width="1" stroke-linecap="butt" stroke-miterlimit="10" stroke-linejoin="miter" fill="none" stroke="#ec5326" d="M0 0C-21.266 0-39.362-15.479-42.663-36.476L-43.682-42.952C-42.959-41.941-42.198-40.961-41.403-40.019-36.077-33.637-27.73-28.94-16.49-26.016-10.991-24.583-4.823-23.572 1.944-22.988 6.548-22.589 11.429-22.389 16.566-22.389 20.552-22.389 24.548-22.511 28.448-22.754L31.992-22.973 32.095-22.757 34.824-17.285 43.447 0H0Z"/>
<path transform="matrix(1,0,0,-1,1568.4408,438.88929)" stroke-width="1" stroke-linecap="butt" stroke-miterlimit="10" stroke-linejoin="miter" fill="none" stroke="#ec5326" d="M0 0-24.224-9.486-1.783-38.573-38.755-38.634-51.176-63.549C-30.216-64.846 50.218-65.865 0 0Z"/>
<path transform="matrix(1,0,0,-1,1545.0895,533.7573)" stroke-width="1" stroke-linecap="butt" stroke-miterlimit="10" stroke-linejoin="miter" fill="none" stroke="#ec5326" d="M0 0C21.266 0 39.362 15.479 42.663 36.476L43.682 42.952C42.959 41.941 42.198 40.961 41.403 40.019 36.077 33.637 27.73 28.94 16.49 26.016 10.991 24.583 4.823 23.572-1.944 22.988-6.548 22.589-11.429 22.389-16.567 22.389-20.552 22.389-24.548 22.511-28.449 22.754L-31.992 22.973-32.095 22.757-34.824 17.285-43.447 0H0Z"/>
<path transform="matrix(1,0,0,-1,351.5592,641.1107)" stroke-width="1" stroke-linecap="butt" stroke-miterlimit="10" stroke-linejoin="miter" fill="none" stroke="#ec5326" d="M0 0 24.223 9.486 1.783 38.573 38.755 38.634 51.176 63.549C30.216 64.846-50.218 65.865 0 0Z"/>
<path transform="matrix(1,0,0,-1,374.9105,546.2427)" stroke-width="1" stroke-linecap="butt" stroke-miterlimit="10" stroke-linejoin="miter" fill="none" stroke="#ec5326" d="M0 0C-21.266 0-39.362-15.479-42.663-36.476L-43.682-42.952C-42.959-41.941-42.198-40.961-41.403-40.019-36.077-33.637-27.73-28.94-16.49-26.016-10.991-24.583-4.823-23.572 1.944-22.988 6.548-22.589 11.429-22.389 16.566-22.389 20.552-22.389 24.548-22.511 28.449-22.754L31.992-22.973 32.095-22.757 34.824-17.285 43.447 0H0Z"/>
<path transform="matrix(1,0,0,-1,446.4983,546.2427)" stroke-width="1" stroke-linecap="butt" stroke-miterlimit="10" stroke-linejoin="miter" fill="none" stroke="#ec5326" d="M0 0-24.223-9.486-1.783-38.573-38.755-38.634-51.176-63.549C-30.216-64.846 50.218-65.866 0 0Z"/>
<path transform="matrix(1,0,0,-1,423.147,641.1107)" stroke-width="1" stroke-linecap="butt" stroke-miterlimit="10" stroke-linejoin="miter" fill="none" stroke="#ec5326" d="M0 0C21.266 0 39.362 15.479 42.663 36.476L43.682 42.951C42.959 41.941 42.198 40.961 41.403 40.019 36.077 33.637 27.73 28.94 16.49 26.016 10.991 24.583 4.823 23.572-1.944 22.988-6.548 22.589-11.429 22.389-16.566 22.389-20.552 22.389-24.548 22.511-28.449 22.754L-31.992 22.973-32.095 22.757-34.824 17.285-43.447 0H0Z"/>
<path transform="matrix(1,0,0,-1,492.0903,641.1107)" stroke-width="1" stroke-linecap="butt" stroke-miterlimit="10" stroke-linejoin="miter" fill="none" stroke="#ec5326" d="M0 0 24.223 9.486 1.783 38.573 38.755 38.634 51.176 63.549C30.216 64.846-50.218 65.865 0 0Z"/>
<path transform="matrix(1,0,0,-1,515.4416,546.2427)" stroke-width="1" stroke-linecap="butt" stroke-miterlimit="10" stroke-linejoin="miter" fill="none" stroke="#ec5326" d="M0 0C-21.266 0-39.362-15.479-42.663-36.476L-43.682-42.952C-42.959-41.941-42.198-40.961-41.403-40.019-36.077-33.637-27.73-28.94-16.49-26.016-10.991-24.583-4.823-23.572 1.944-22.988 6.548-22.589 11.429-22.389 16.566-22.389 20.552-22.389 24.548-22.511 28.449-22.754L31.992-22.973 32.095-22.757 34.824-17.285 43.447 0H0Z"/>
<path transform="matrix(1,0,0,-1,587.0294,546.2427)" stroke-width="1" stroke-linecap="butt" stroke-miterlimit="10" stroke-linejoin="miter" fill="none" stroke="#ec5326" d="M0 0-24.223-9.486-1.783-38.573-38.755-38.634-51.176-63.549C-30.216-64.846 50.218-65.866 0 0Z"/>
<path transform="matrix(1,0,0,-1,563.6781,641.1107)" stroke-width="1" stroke-linecap="butt" stroke-miterlimit="10" stroke-linejoin="miter" fill="none" stroke="#ec5326" d="M0 0C21.266 0 39.362 15.479 42.663 36.476L43.682 42.951C42.959 41.941 42.198 40.961 41.403 40.019 36.077 33.637 27.73 28.94 16.49 26.016 10.991 24.583 4.823 23.572-1.944 22.988-6.548 22.589-11.429 22.389-16.566 22.389-20.552 22.389-24.548 22.511-28.449 22.754L-31.992 22.973-32.095 22.757-34.824 17.285-43.447 0H0Z"/>
<path transform="matrix(1,0,0,-1,630.7877,641.1107)" stroke-width="1" stroke-linecap="butt" stroke-miterlimit="10" stroke-linejoin="miter" fill="none" stroke="#ec5326" d="M0 0 24.223 9.486 1.783 38.573 38.755 38.634 51.176 63.549C30.216 64.846-50.218 65.865 0 0Z"/>
<path transform="matrix(1,0,0,-1,654.1389,546.2427)" stroke-width="1" stroke-linecap="butt" stroke-miterlimit="10" stroke-linejoin="miter" fill="none" stroke="#ec5326" d="M0 0C-21.266 0-39.362-15.479-42.663-36.476L-43.682-42.952C-42.959-41.941-42.198-40.961-41.403-40.019-36.077-33.637-27.73-28.94-16.49-26.016-10.991-24.583-4.823-23.572 1.944-22.988 6.548-22.589 11.429-22.389 16.567-22.389 20.552-22.389 24.548-22.511 28.449-22.754L31.992-22.973 32.095-22.757 34.824-17.285 43.447 0H0Z"/>
<path transform="matrix(1,0,0,-1,725.7267,546.2427)" stroke-width="1" stroke-linecap="butt" stroke-miterlimit="10" stroke-linejoin="miter" fill="none" stroke="#ec5326" d="M0 0-24.224-9.486-1.783-38.573-38.755-38.634-51.176-63.549C-30.216-64.846 50.218-65.866 0 0Z"/>
<path transform="matrix(1,0,0,-1,702.3754,641.1107)" stroke-width="1" stroke-linecap="butt" stroke-miterlimit="10" stroke-linejoin="miter" fill="none" stroke="#ec5326" d="M0 0C21.266 0 39.362 15.479 42.663 36.476L43.682 42.951C42.959 41.941 42.198 40.961 41.403 40.019 36.077 33.637 27.73 28.94 16.49 26.016 10.991 24.583 4.823 23.572-1.944 22.988-6.548 22.589-11.429 22.389-16.566 22.389-20.551 22.389-24.548 22.511-28.449 22.754L-31.992 22.973-32.095 22.757-34.824 17.285-43.447 0H0Z"/>
<path transform="matrix(1,0,0,-1,351.5592,748.4641)" stroke-width="1" stroke-linecap="butt" stroke-miterlimit="10" stroke-linejoin="miter" fill="none" stroke="#ec5326" d="M0 0 24.223 9.486 1.783 38.573 38.755 38.634 51.176 63.549C30.216 64.846-50.218 65.865 0 0Z"/>
<path transform="matrix(1,0,0,-1,374.9105,653.59609)" stroke-width="1" stroke-linecap="butt" stroke-miterlimit="10" stroke-linejoin="miter" fill="none" stroke="#ec5326" d="M0 0C-21.266 0-39.362-15.479-42.663-36.476L-43.682-42.952C-42.959-41.941-42.198-40.961-41.403-40.019-36.077-33.637-27.73-28.94-16.49-26.016-10.991-24.583-4.823-23.572 1.944-22.988 6.548-22.589 11.429-22.389 16.566-22.389 20.552-22.389 24.548-22.511 28.449-22.754L31.992-22.973 32.095-22.757 34.824-17.285 43.447 0H0Z"/>
<path transform="matrix(1,0,0,-1,446.4983,653.59609)" stroke-width="1" stroke-linecap="butt" stroke-miterlimit="10" stroke-linejoin="miter" fill="none" stroke="#ec5326" d="M0 0-24.223-9.486-1.783-38.573-38.755-38.634-51.176-63.549C-30.216-64.846 50.218-65.865 0 0Z"/>
<path transform="matrix(1,0,0,-1,423.147,748.4641)" stroke-width="1" stroke-linecap="butt" stroke-miterlimit="10" stroke-linejoin="miter" fill="none" stroke="#ec5326" d="M0 0C21.266 0 39.362 15.479 42.663 36.476L43.682 42.952C42.959 41.941 42.198 40.961 41.403 40.019 36.077 33.637 27.73 28.94 16.49 26.016 10.991 24.583 4.823 23.572-1.944 22.988-6.548 22.589-11.429 22.389-16.566 22.389-20.552 22.389-24.548 22.511-28.449 22.754L-31.992 22.973-32.095 22.757-34.824 17.285-43.447 0H0Z"/>
<path transform="matrix(1,0,0,-1,492.0903,748.4641)" stroke-width="1" stroke-linecap="butt" stroke-miterlimit="10" stroke-linejoin="miter" fill="none" stroke="#ec5326" d="M0 0 24.223 9.486 1.783 38.573 38.755 38.634 51.176 63.549C30.216 64.846-50.218 65.865 0 0Z"/>
<path transform="matrix(1,0,0,-1,515.4416,653.59609)" stroke-width="1" stroke-linecap="butt" stroke-miterlimit="10" stroke-linejoin="miter" fill="none" stroke="#ec5326" d="M0 0C-21.266 0-39.362-15.479-42.663-36.476L-43.682-42.952C-42.959-41.941-42.198-40.961-41.403-40.019-36.077-33.637-27.73-28.94-16.49-26.016-10.991-24.583-4.823-23.572 1.944-22.988 6.548-22.589 11.429-22.389 16.566-22.389 20.552-22.389 24.548-22.511 28.449-22.754L31.992-22.973 32.095-22.757 34.824-17.285 43.447 0H0Z"/>
<path transform="matrix(1,0,0,-1,587.0294,653.59609)" stroke-width="1" stroke-linecap="butt" stroke-miterlimit="10" stroke-linejoin="miter" fill="none" stroke="#ec5326" d="M0 0-24.223-9.486-1.783-38.573-38.755-38.634-51.176-63.549C-30.216-64.846 50.218-65.865 0 0Z"/>
<path transform="matrix(1,0,0,-1,563.6781,748.4641)" stroke-width="1" stroke-linecap="butt" stroke-miterlimit="10" stroke-linejoin="miter" fill="none" stroke="#ec5326" d="M0 0C21.266 0 39.362 15.479 42.663 36.476L43.682 42.952C42.959 41.941 42.198 40.961 41.403 40.019 36.077 33.637 27.73 28.94 16.49 26.016 10.991 24.583 4.823 23.572-1.944 22.988-6.548 22.589-11.429 22.389-16.566 22.389-20.552 22.389-24.548 22.511-28.449 22.754L-31.992 22.973-32.095 22.757-34.824 17.285-43.447 0H0Z"/>
<path transform="matrix(1,0,0,-1,630.7877,748.4641)" stroke-width="1" stroke-linecap="butt" stroke-miterlimit="10" stroke-linejoin="miter" fill="none" stroke="#ec5326" d="M0 0 24.223 9.486 1.783 38.573 38.755 38.634 51.176 63.549C30.216 64.846-50.218 65.865 0 0Z"/>
<path transform="matrix(1,0,0,-1,654.1389,653.59609)" stroke-width="1" stroke-linecap="butt" stroke-miterlimit="10" stroke-linejoin="miter" fill="none" stroke="#ec5326" d="M0 0C-21.266 0-39.362-15.479-42.663-36.476L-43.682-42.952C-42.959-41.941-42.198-40.961-41.403-40.019-36.077-33.637-27.73-28.94-16.49-26.016-10.991-24.583-4.823-23.572 1.944-22.988 6.548-22.589 11.429-22.389 16.567-22.389 20.552-22.389 24.548-22.511 28.449-22.754L31.992-22.973 32.095-22.757 34.824-17.285 43.447 0H0Z"/>
<path transform="matrix(1,0,0,-1,725.7267,653.59609)" stroke-width="1" stroke-linecap="butt" stroke-miterlimit="10" stroke-linejoin="miter" fill="none" stroke="#ec5326" d="M0 0-24.224-9.486-1.783-38.573-38.755-38.634-51.176-63.549C-30.216-64.846 50.218-65.865 0 0Z"/>
<path transform="matrix(1,0,0,-1,702.3754,748.4641)" stroke-width="1" stroke-linecap="butt" stroke-miterlimit="10" stroke-linejoin="miter" fill="none" stroke="#ec5326" d="M0 0C21.266 0 39.362 15.479 42.663 36.476L43.682 42.952C42.959 41.941 42.198 40.961 41.403 40.019 36.077 33.637 27.73 28.94 16.49 26.016 10.991 24.583 4.823 23.572-1.944 22.988-6.548 22.589-11.429 22.389-16.566 22.389-20.551 22.389-24.548 22.511-28.449 22.754L-31.992 22.973-32.095 22.757-34.824 17.285-43.447 0H0Z"/>
<path transform="matrix(1,0,0,-1,776.3475,641.1107)" stroke-width="1" stroke-linecap="butt" stroke-miterlimit="10" stroke-linejoin="miter" fill="none" stroke="#ec5326" d="M0 0 24.223 9.486 1.783 38.573 38.755 38.634 51.176 63.549C30.216 64.846-50.218 65.865 0 0Z"/>
<path transform="matrix(1,0,0,-1,799.6988,546.2427)" stroke-width="1" stroke-linecap="butt" stroke-miterlimit="10" stroke-linejoin="miter" fill="none" stroke="#ec5326" d="M0 0C-21.266 0-39.362-15.479-42.663-36.476L-43.682-42.952C-42.959-41.941-42.198-40.961-41.403-40.019-36.077-33.637-27.73-28.94-16.49-26.016-10.991-24.583-4.823-23.572 1.944-22.988 6.548-22.589 11.429-22.389 16.566-22.389 20.552-22.389 24.548-22.511 28.449-22.754L31.992-22.973 32.095-22.757 34.824-17.285 43.447 0H0Z"/>
<path transform="matrix(1,0,0,-1,871.2866,546.2427)" stroke-width="1" stroke-linecap="butt" stroke-miterlimit="10" stroke-linejoin="miter" fill="none" stroke="#ec5326" d="M0 0-24.223-9.486-1.783-38.573-38.755-38.634-51.176-63.549C-30.216-64.846 50.218-65.866 0 0Z"/>
<path transform="matrix(1,0,0,-1,847.9353,641.1107)" stroke-width="1" stroke-linecap="butt" stroke-miterlimit="10" stroke-linejoin="miter" fill="none" stroke="#ec5326" d="M0 0C21.266 0 39.362 15.479 42.663 36.476L43.682 42.951C42.959 41.941 42.198 40.961 41.403 40.019 36.077 33.637 27.73 28.94 16.49 26.016 10.991 24.583 4.823 23.572-1.944 22.988-6.548 22.589-11.429 22.389-16.566 22.389-20.552 22.389-24.548 22.511-28.449 22.754L-31.992 22.973-32.095 22.757-34.824 17.285-43.447 0H0Z"/>
<path transform="matrix(1,0,0,-1,916.8786,641.1107)" stroke-width="1" stroke-linecap="butt" stroke-miterlimit="10" stroke-linejoin="miter" fill="none" stroke="#ec5326" d="M0 0 24.223 9.486 1.783 38.573 38.755 38.634 51.176 63.549C30.216 64.846-50.218 65.865 0 0Z"/>
<path transform="matrix(1,0,0,-1,940.2299,546.2427)" stroke-width="1" stroke-linecap="butt" stroke-miterlimit="10" stroke-linejoin="miter" fill="none" stroke="#ec5326" d="M0 0C-21.266 0-39.362-15.479-42.663-36.476L-43.682-42.952C-42.959-41.941-42.198-40.961-41.403-40.019-36.077-33.637-27.73-28.94-16.49-26.016-10.991-24.583-4.823-23.572 1.944-22.988 6.548-22.589 11.429-22.389 16.566-22.389 20.552-22.389 24.548-22.511 28.449-22.754L31.992-22.973 32.095-22.757 34.824-17.285 43.447 0H0Z"/>
<path transform="matrix(1,0,0,-1,1011.8176,546.2427)" stroke-width="1" stroke-linecap="butt" stroke-miterlimit="10" stroke-linejoin="miter" fill="none" stroke="#ec5326" d="M0 0-24.223-9.486-1.783-38.573-38.755-38.634-51.176-63.549C-30.216-64.846 50.218-65.866 0 0Z"/>
<path transform="matrix(1,0,0,-1,988.4664,641.1107)" stroke-width="1" stroke-linecap="butt" stroke-miterlimit="10" stroke-linejoin="miter" fill="none" stroke="#ec5326" d="M0 0C21.266 0 39.362 15.479 42.663 36.476L43.682 42.951C42.959 41.941 42.198 40.961 41.403 40.019 36.077 33.637 27.73 28.94 16.49 26.016 10.991 24.583 4.823 23.572-1.944 22.988-6.548 22.589-11.429 22.389-16.566 22.389-20.552 22.389-24.548 22.511-28.449 22.754L-31.992 22.973-32.095 22.757-34.824 17.285-43.447 0H0Z"/>
<path transform="matrix(1,0,0,-1,1055.5759,641.1107)" stroke-width="1" stroke-linecap="butt" stroke-miterlimit="10" stroke-linejoin="miter" fill="none" stroke="#ec5326" d="M0 0 24.224 9.486 1.783 38.573 38.755 38.634 51.176 63.549C30.216 64.846-50.218 65.865 0 0Z"/>
<path transform="matrix(1,0,0,-1,1078.9273,546.2427)" stroke-width="1" stroke-linecap="butt" stroke-miterlimit="10" stroke-linejoin="miter" fill="none" stroke="#ec5326" d="M0 0C-21.266 0-39.362-15.479-42.663-36.476L-43.682-42.952C-42.959-41.941-42.198-40.961-41.403-40.019-36.077-33.637-27.73-28.94-16.49-26.016-10.991-24.583-4.823-23.572 1.944-22.988 6.548-22.589 11.429-22.389 16.566-22.389 20.552-22.389 24.548-22.511 28.448-22.754L31.992-22.973 32.095-22.757 34.824-17.285 43.447 0H0Z"/>
<path transform="matrix(1,0,0,-1,1150.515,546.2427)" stroke-width="1" stroke-linecap="butt" stroke-miterlimit="10" stroke-linejoin="miter" fill="none" stroke="#ec5326" d="M0 0-24.224-9.486-1.783-38.573-38.755-38.634-51.176-63.549C-30.216-64.846 50.218-65.866 0 0Z"/>
<path transform="matrix(1,0,0,-1,1127.1637,641.1107)" stroke-width="1" stroke-linecap="butt" stroke-miterlimit="10" stroke-linejoin="miter" fill="none" stroke="#ec5326" d="M0 0C21.266 0 39.362 15.479 42.663 36.476L43.682 42.951C42.959 41.941 42.198 40.961 41.403 40.019 36.077 33.637 27.73 28.94 16.49 26.016 10.991 24.583 4.823 23.572-1.944 22.988-6.548 22.589-11.429 22.389-16.566 22.389-20.552 22.389-24.548 22.511-28.448 22.754L-31.992 22.973-32.095 22.757-34.824 17.285-43.447 0H0Z"/>
<path transform="matrix(1,0,0,-1,776.3475,748.4641)" stroke-width="1" stroke-linecap="butt" stroke-miterlimit="10" stroke-linejoin="miter" fill="none" stroke="#ec5326" d="M0 0 24.223 9.486 1.783 38.573 38.755 38.634 51.176 63.549C30.216 64.846-50.218 65.865 0 0Z"/>
<path transform="matrix(1,0,0,-1,799.6988,653.59609)" stroke-width="1" stroke-linecap="butt" stroke-miterlimit="10" stroke-linejoin="miter" fill="none" stroke="#ec5326" d="M0 0C-21.266 0-39.362-15.479-42.663-36.476L-43.682-42.952C-42.959-41.941-42.198-40.961-41.403-40.019-36.077-33.637-27.73-28.94-16.49-26.016-10.991-24.583-4.823-23.572 1.944-22.988 6.548-22.589 11.429-22.389 16.566-22.389 20.552-22.389 24.548-22.511 28.449-22.754L31.992-22.973 32.095-22.757 34.824-17.285 43.447 0H0Z"/>
<path transform="matrix(1,0,0,-1,871.2866,653.59609)" stroke-width="1" stroke-linecap="butt" stroke-miterlimit="10" stroke-linejoin="miter" fill="none" stroke="#ec5326" d="M0 0-24.223-9.486-1.783-38.573-38.755-38.634-51.176-63.549C-30.216-64.846 50.218-65.865 0 0Z"/>
<path transform="matrix(1,0,0,-1,847.9353,748.4641)" stroke-width="1" stroke-linecap="butt" stroke-miterlimit="10" stroke-linejoin="miter" fill="none" stroke="#ec5326" d="M0 0C21.266 0 39.362 15.479 42.663 36.476L43.682 42.952C42.959 41.941 42.198 40.961 41.403 40.019 36.077 33.637 27.73 28.94 16.49 26.016 10.991 24.583 4.823 23.572-1.944 22.988-6.548 22.589-11.429 22.389-16.566 22.389-20.552 22.389-24.548 22.511-28.449 22.754L-31.992 22.973-32.095 22.757-34.824 17.285-43.447 0H0Z"/>
<path transform="matrix(1,0,0,-1,916.8786,748.4641)" stroke-width="1" stroke-linecap="butt" stroke-miterlimit="10" stroke-linejoin="miter" fill="none" stroke="#ec5326" d="M0 0 24.223 9.486 1.783 38.573 38.755 38.634 51.176 63.549C30.216 64.846-50.218 65.865 0 0Z"/>
<path transform="matrix(1,0,0,-1,940.2299,653.59609)" stroke-width="1" stroke-linecap="butt" stroke-miterlimit="10" stroke-linejoin="miter" fill="none" stroke="#ec5326" d="M0 0C-21.266 0-39.362-15.479-42.663-36.476L-43.682-42.952C-42.959-41.941-42.198-40.961-41.403-40.019-36.077-33.637-27.73-28.94-16.49-26.016-10.991-24.583-4.823-23.572 1.944-22.988 6.548-22.589 11.429-22.389 16.566-22.389 20.552-22.389 24.548-22.511 28.449-22.754L31.992-22.973 32.095-22.757 34.824-17.285 43.447 0H0Z"/>
<path transform="matrix(1,0,0,-1,1011.8176,653.59609)" stroke-width="1" stroke-linecap="butt" stroke-miterlimit="10" stroke-linejoin="miter" fill="none" stroke="#ec5326" d="M0 0-24.223-9.486-1.783-38.573-38.755-38.634-51.176-63.549C-30.216-64.846 50.218-65.865 0 0Z"/>
<path transform="matrix(1,0,0,-1,988.4664,748.4641)" stroke-width="1" stroke-linecap="butt" stroke-miterlimit="10" stroke-linejoin="miter" fill="none" stroke="#ec5326" d="M0 0C21.266 0 39.362 15.479 42.663 36.476L43.682 42.952C42.959 41.941 42.198 40.961 41.403 40.019 36.077 33.637 27.73 28.94 16.49 26.016 10.991 24.583 4.823 23.572-1.944 22.988-6.548 22.589-11.429 22.389-16.566 22.389-20.552 22.389-24.548 22.511-28.449 22.754L-31.992 22.973-32.095 22.757-34.824 17.285-43.447 0H0Z"/>
<path transform="matrix(1,0,0,-1,1055.5759,748.4641)" stroke-width="1" stroke-linecap="butt" stroke-miterlimit="10" stroke-linejoin="miter" fill="none" stroke="#ec5326" d="M0 0 24.224 9.486 1.783 38.573 38.755 38.634 51.176 63.549C30.216 64.846-50.218 65.865 0 0Z"/>
<path transform="matrix(1,0,0,-1,1078.9273,653.59609)" stroke-width="1" stroke-linecap="butt" stroke-miterlimit="10" stroke-linejoin="miter" fill="none" stroke="#ec5326" d="M0 0C-21.266 0-39.362-15.479-42.663-36.476L-43.682-42.952C-42.959-41.941-42.198-40.961-41.403-40.019-36.077-33.637-27.73-28.94-16.49-26.016-10.991-24.583-4.823-23.572 1.944-22.988 6.548-22.589 11.429-22.389 16.566-22.389 20.552-22.389 24.548-22.511 28.448-22.754L31.992-22.973 32.095-22.757 34.824-17.285 43.447 0H0Z"/>
<path transform="matrix(1,0,0,-1,1150.515,653.59609)" stroke-width="1" stroke-linecap="butt" stroke-miterlimit="10" stroke-linejoin="miter" fill="none" stroke="#ec5326" d="M0 0-24.224-9.486-1.783-38.573-38.755-38.634-51.176-63.549C-30.216-64.846 50.218-65.865 0 0Z"/>
<path transform="matrix(1,0,0,-1,1127.1637,748.4641)" stroke-width="1" stroke-linecap="butt" stroke-miterlimit="10" stroke-linejoin="miter" fill="none" stroke="#ec5326" d="M0 0C21.266 0 39.362 15.479 42.663 36.476L43.682 42.952C42.959 41.941 42.198 40.961 41.403 40.019 36.077 33.637 27.73 28.94 16.49 26.016 10.991 24.583 4.823 23.572-1.944 22.988-6.548 22.589-11.429 22.389-16.566 22.389-20.552 22.389-24.548 22.511-28.448 22.754L-31.992 22.973-32.095 22.757-34.824 17.285-43.447 0H0Z"/>
<path transform="matrix(1,0,0,-1,351.5592,855.8175)" stroke-width="1" stroke-linecap="butt" stroke-miterlimit="10" stroke-linejoin="miter" fill="none" stroke="#ec5326" d="M0 0 24.223 9.486 1.783 38.573 38.755 38.634 51.176 63.549C30.216 64.846-50.218 65.865 0 0Z"/>
<path transform="matrix(1,0,0,-1,374.9105,760.9494)" stroke-width="1" stroke-linecap="butt" stroke-miterlimit="10" stroke-linejoin="miter" fill="none" stroke="#ec5326" d="M0 0C-21.266 0-39.362-15.479-42.663-36.476L-43.682-42.952C-42.959-41.941-42.198-40.961-41.403-40.019-36.077-33.637-27.73-28.94-16.49-26.016-10.991-24.583-4.823-23.572 1.944-22.988 6.548-22.589 11.429-22.389 16.566-22.389 20.552-22.389 24.548-22.511 28.449-22.754L31.992-22.973 32.095-22.757 34.824-17.285 43.447 0H0Z"/>
<path transform="matrix(1,0,0,-1,446.4983,760.9494)" stroke-width="1" stroke-linecap="butt" stroke-miterlimit="10" stroke-linejoin="miter" fill="none" stroke="#ec5326" d="M0 0-24.223-9.486-1.783-38.573-38.755-38.634-51.176-63.549C-30.216-64.846 50.218-65.866 0 0Z"/>
<path transform="matrix(1,0,0,-1,423.147,855.8175)" stroke-width="1" stroke-linecap="butt" stroke-miterlimit="10" stroke-linejoin="miter" fill="none" stroke="#ec5326" d="M0 0C21.266 0 39.362 15.479 42.663 36.476L43.682 42.951C42.959 41.941 42.198 40.961 41.403 40.019 36.077 33.637 27.73 28.94 16.49 26.016 10.991 24.583 4.823 23.572-1.944 22.988-6.548 22.589-11.429 22.389-16.566 22.389-20.552 22.389-24.548 22.511-28.449 22.754L-31.992 22.973-32.095 22.757-34.824 17.285-43.447 0H0Z"/>
<path transform="matrix(1,0,0,-1,492.0903,855.8175)" stroke-width="1" stroke-linecap="butt" stroke-miterlimit="10" stroke-linejoin="miter" fill="none" stroke="#ec5326" d="M0 0 24.223 9.486 1.783 38.573 38.755 38.634 51.176 63.549C30.216 64.846-50.218 65.865 0 0Z"/>
<path transform="matrix(1,0,0,-1,515.4416,760.9494)" stroke-width="1" stroke-linecap="butt" stroke-miterlimit="10" stroke-linejoin="miter" fill="none" stroke="#ec5326" d="M0 0C-21.266 0-39.362-15.479-42.663-36.476L-43.682-42.952C-42.959-41.941-42.198-40.961-41.403-40.019-36.077-33.637-27.73-28.94-16.49-26.016-10.991-24.583-4.823-23.572 1.944-22.988 6.548-22.589 11.429-22.389 16.566-22.389 20.552-22.389 24.548-22.511 28.449-22.754L31.992-22.973 32.095-22.757 34.824-17.285 43.447 0H0Z"/>
<path transform="matrix(1,0,0,-1,587.0294,760.9494)" stroke-width="1" stroke-linecap="butt" stroke-miterlimit="10" stroke-linejoin="miter" fill="none" stroke="#ec5326" d="M0 0-24.223-9.486-1.783-38.573-38.755-38.634-51.176-63.549C-30.216-64.846 50.218-65.866 0 0Z"/>
<path transform="matrix(1,0,0,-1,563.6781,855.8175)" stroke-width="1" stroke-linecap="butt" stroke-miterlimit="10" stroke-linejoin="miter" fill="none" stroke="#ec5326" d="M0 0C21.266 0 39.362 15.479 42.663 36.476L43.682 42.951C42.959 41.941 42.198 40.961 41.403 40.019 36.077 33.637 27.73 28.94 16.49 26.016 10.991 24.583 4.823 23.572-1.944 22.988-6.548 22.589-11.429 22.389-16.566 22.389-20.552 22.389-24.548 22.511-28.449 22.754L-31.992 22.973-32.095 22.757-34.824 17.285-43.447 0H0Z"/>
<path transform="matrix(1,0,0,-1,630.7877,855.8175)" stroke-width="1" stroke-linecap="butt" stroke-miterlimit="10" stroke-linejoin="miter" fill="none" stroke="#ec5326" d="M0 0 24.223 9.486 1.783 38.573 38.755 38.634 51.176 63.549C30.216 64.846-50.218 65.865 0 0Z"/>
<path transform="matrix(1,0,0,-1,654.1389,760.9494)" stroke-width="1" stroke-linecap="butt" stroke-miterlimit="10" stroke-linejoin="miter" fill="none" stroke="#ec5326" d="M0 0C-21.266 0-39.362-15.479-42.663-36.476L-43.682-42.952C-42.959-41.941-42.198-40.961-41.403-40.019-36.077-33.637-27.73-28.94-16.49-26.016-10.991-24.583-4.823-23.572 1.944-22.988 6.548-22.589 11.429-22.389 16.567-22.389 20.552-22.389 24.548-22.511 28.449-22.754L31.992-22.973 32.095-22.757 34.824-17.285 43.447 0H0Z"/>
<path transform="matrix(1,0,0,-1,725.7267,760.9494)" stroke-width="1" stroke-linecap="butt" stroke-miterlimit="10" stroke-linejoin="miter" fill="none" stroke="#ec5326" d="M0 0-24.224-9.486-1.783-38.573-38.755-38.634-51.176-63.549C-30.216-64.846 50.218-65.866 0 0Z"/>
<path transform="matrix(1,0,0,-1,702.3754,855.8175)" stroke-width="1" stroke-linecap="butt" stroke-miterlimit="10" stroke-linejoin="miter" fill="none" stroke="#ec5326" d="M0 0C21.266 0 39.362 15.479 42.663 36.476L43.682 42.951C42.959 41.941 42.198 40.961 41.403 40.019 36.077 33.637 27.73 28.94 16.49 26.016 10.991 24.583 4.823 23.572-1.944 22.988-6.548 22.589-11.429 22.389-16.566 22.389-20.551 22.389-24.548 22.511-28.449 22.754L-31.992 22.973-32.095 22.757-34.824 17.285-43.447 0H0Z"/>
<path transform="matrix(1,0,0,-1,776.3475,855.8175)" stroke-width="1" stroke-linecap="butt" stroke-miterlimit="10" stroke-linejoin="miter" fill="none" stroke="#ec5326" d="M0 0 24.223 9.486 1.783 38.573 38.755 38.634 51.176 63.549C30.216 64.846-50.218 65.865 0 0Z"/>
<path transform="matrix(1,0,0,-1,799.6988,760.9494)" stroke-width="1" stroke-linecap="butt" stroke-miterlimit="10" stroke-linejoin="miter" fill="none" stroke="#ec5326" d="M0 0C-21.266 0-39.362-15.479-42.663-36.476L-43.682-42.952C-42.959-41.941-42.198-40.961-41.403-40.019-36.077-33.637-27.73-28.94-16.49-26.016-10.991-24.583-4.823-23.572 1.944-22.988 6.548-22.589 11.429-22.389 16.566-22.389 20.552-22.389 24.548-22.511 28.449-22.754L31.992-22.973 32.095-22.757 34.824-17.285 43.447 0H0Z"/>
<path transform="matrix(1,0,0,-1,871.2866,760.9494)" stroke-width="1" stroke-linecap="butt" stroke-miterlimit="10" stroke-linejoin="miter" fill="none" stroke="#ec5326" d="M0 0-24.223-9.486-1.783-38.573-38.755-38.634-51.176-63.549C-30.216-64.846 50.218-65.866 0 0Z"/>
<path transform="matrix(1,0,0,-1,847.9353,855.8175)" stroke-width="1" stroke-linecap="butt" stroke-miterlimit="10" stroke-linejoin="miter" fill="none" stroke="#ec5326" d="M0 0C21.266 0 39.362 15.479 42.663 36.476L43.682 42.951C42.959 41.941 42.198 40.961 41.403 40.019 36.077 33.637 27.73 28.94 16.49 26.016 10.991 24.583 4.823 23.572-1.944 22.988-6.548 22.589-11.429 22.389-16.566 22.389-20.552 22.389-24.548 22.511-28.449 22.754L-31.992 22.973-32.095 22.757-34.824 17.285-43.447 0H0Z"/>
<path transform="matrix(1,0,0,-1,916.8786,855.8175)" stroke-width="1" stroke-linecap="butt" stroke-miterlimit="10" stroke-linejoin="miter" fill="none" stroke="#ec5326" d="M0 0 24.223 9.486 1.783 38.573 38.755 38.634 51.176 63.549C30.216 64.846-50.218 65.865 0 0Z"/>
<path transform="matrix(1,0,0,-1,940.2299,760.9494)" stroke-width="1" stroke-linecap="butt" stroke-miterlimit="10" stroke-linejoin="miter" fill="none" stroke="#ec5326" d="M0 0C-21.266 0-39.362-15.479-42.663-36.476L-43.682-42.952C-42.959-41.941-42.198-40.961-41.403-40.019-36.077-33.637-27.73-28.94-16.49-26.016-10.991-24.583-4.823-23.572 1.944-22.988 6.548-22.589 11.429-22.389 16.566-22.389 20.552-22.389 24.548-22.511 28.449-22.754L31.992-22.973 32.095-22.757 34.824-17.285 43.447 0H0Z"/>
<path transform="matrix(1,0,0,-1,1011.8176,760.9494)" stroke-width="1" stroke-linecap="butt" stroke-miterlimit="10" stroke-linejoin="miter" fill="none" stroke="#ec5326" d="M0 0-24.223-9.486-1.783-38.573-38.755-38.634-51.176-63.549C-30.216-64.846 50.218-65.866 0 0Z"/>
<path transform="matrix(1,0,0,-1,988.4664,855.8175)" stroke-width="1" stroke-linecap="butt" stroke-miterlimit="10" stroke-linejoin="miter" fill="none" stroke="#ec5326" d="M0 0C21.266 0 39.362 15.479 42.663 36.476L43.682 42.951C42.959 41.941 42.198 40.961 41.403 40.019 36.077 33.637 27.73 28.94 16.49 26.016 10.991 24.583 4.823 23.572-1.944 22.988-6.548 22.589-11.429 22.389-16.566 22.389-20.552 22.389-24.548 22.511-28.449 22.754L-31.992 22.973-32.095 22.757-34.824 17.285-43.447 0H0Z"/>
<path transform="matrix(1,0,0,-1,1055.5759,855.8175)" stroke-width="1" stroke-linecap="butt" stroke-miterlimit="10" stroke-linejoin="miter" fill="none" stroke="#ec5326" d="M0 0 24.224 9.486 1.783 38.573 38.755 38.634 51.176 63.549C30.216 64.846-50.218 65.865 0 0Z"/>
<path transform="matrix(1,0,0,-1,1078.9273,760.9494)" stroke-width="1" stroke-linecap="butt" stroke-miterlimit="10" stroke-linejoin="miter" fill="none" stroke="#ec5326" d="M0 0C-21.266 0-39.362-15.479-42.663-36.476L-43.682-42.952C-42.959-41.941-42.198-40.961-41.403-40.019-36.077-33.637-27.73-28.94-16.49-26.016-10.991-24.583-4.823-23.572 1.944-22.988 6.548-22.589 11.429-22.389 16.566-22.389 20.552-22.389 24.548-22.511 28.448-22.754L31.992-22.973 32.095-22.757 34.824-17.285 43.447 0H0Z"/>
<path transform="matrix(1,0,0,-1,1150.515,760.9494)" stroke-width="1" stroke-linecap="butt" stroke-miterlimit="10" stroke-linejoin="miter" fill="none" stroke="#ec5326" d="M0 0-24.224-9.486-1.783-38.573-38.755-38.634-51.176-63.549C-30.216-64.846 50.218-65.866 0 0Z"/>
<path transform="matrix(1,0,0,-1,1127.1637,855.8175)" stroke-width="1" stroke-linecap="butt" stroke-miterlimit="10" stroke-linejoin="miter" fill="none" stroke="#ec5326" d="M0 0C21.266 0 39.362 15.479 42.663 36.476L43.682 42.951C42.959 41.941 42.198 40.961 41.403 40.019 36.077 33.637 27.73 28.94 16.49 26.016 10.991 24.583 4.823 23.572-1.944 22.988-6.548 22.589-11.429 22.389-16.566 22.389-20.552 22.389-24.548 22.511-28.448 22.754L-31.992 22.973-32.095 22.757-34.824 17.285-43.447 0H0Z"/>
<path transform="matrix(1,0,0,-1,1194.2733,641.1107)" stroke-width="1" stroke-linecap="butt" stroke-miterlimit="10" stroke-linejoin="miter" fill="none" stroke="#ec5326" d="M0 0 24.223 9.486 1.783 38.573 38.755 38.634 51.176 63.549C30.216 64.846-50.218 65.865 0 0Z"/>
<path transform="matrix(1,0,0,-1,1217.6245,546.2427)" stroke-width="1" stroke-linecap="butt" stroke-miterlimit="10" stroke-linejoin="miter" fill="none" stroke="#ec5326" d="M0 0C-21.266 0-39.362-15.479-42.663-36.476L-43.682-42.952C-42.959-41.941-42.198-40.961-41.403-40.019-36.077-33.637-27.73-28.94-16.49-26.016-10.99-24.583-4.823-23.572 1.944-22.988 6.548-22.589 11.429-22.389 16.567-22.389 20.552-22.389 24.548-22.511 28.449-22.754L31.992-22.973 32.095-22.757 34.824-17.285 43.447 0H0Z"/>
<path transform="matrix(1,0,0,-1,1289.2123,546.2427)" stroke-width="1" stroke-linecap="butt" stroke-miterlimit="10" stroke-linejoin="miter" fill="none" stroke="#ec5326" d="M0 0-24.223-9.486-1.783-38.573-38.755-38.634-51.176-63.549C-30.216-64.846 50.218-65.866 0 0Z"/>
<path transform="matrix(1,0,0,-1,1265.8611,641.1107)" stroke-width="1" stroke-linecap="butt" stroke-miterlimit="10" stroke-linejoin="miter" fill="none" stroke="#ec5326" d="M0 0C21.266 0 39.362 15.479 42.663 36.476L43.682 42.951C42.959 41.941 42.198 40.961 41.403 40.019 36.077 33.637 27.73 28.94 16.49 26.016 10.991 24.583 4.823 23.572-1.944 22.988-6.548 22.589-11.429 22.389-16.567 22.389-20.552 22.389-24.548 22.511-28.449 22.754L-31.992 22.973-32.095 22.757-34.824 17.285-43.447 0H0Z"/>
<path transform="matrix(1,0,0,-1,1334.8043,641.1107)" stroke-width="1" stroke-linecap="butt" stroke-miterlimit="10" stroke-linejoin="miter" fill="none" stroke="#ec5326" d="M0 0 24.224 9.486 1.783 38.573 38.755 38.634 51.176 63.549C30.216 64.846-50.218 65.865 0 0Z"/>
<path transform="matrix(1,0,0,-1,1358.1557,546.2427)" stroke-width="1" stroke-linecap="butt" stroke-miterlimit="10" stroke-linejoin="miter" fill="none" stroke="#ec5326" d="M0 0C-21.266 0-39.362-15.479-42.663-36.476L-43.682-42.952C-42.959-41.941-42.198-40.961-41.403-40.019-36.077-33.637-27.73-28.94-16.49-26.016-10.991-24.583-4.823-23.572 1.944-22.988 6.548-22.589 11.429-22.389 16.567-22.389 20.552-22.389 24.548-22.511 28.449-22.754L31.992-22.973 32.095-22.757 34.824-17.285 43.447 0H0Z"/>
<path transform="matrix(1,0,0,-1,1429.7434,546.2427)" stroke-width="1" stroke-linecap="butt" stroke-miterlimit="10" stroke-linejoin="miter" fill="none" stroke="#ec5326" d="M0 0-24.224-9.486-1.783-38.573-38.755-38.634-51.176-63.549C-30.216-64.846 50.218-65.866 0 0Z"/>
<path transform="matrix(1,0,0,-1,1406.3922,641.1107)" stroke-width="1" stroke-linecap="butt" stroke-miterlimit="10" stroke-linejoin="miter" fill="none" stroke="#ec5326" d="M0 0C21.266 0 39.362 15.479 42.663 36.476L43.682 42.951C42.959 41.941 42.198 40.961 41.403 40.019 36.077 33.637 27.73 28.94 16.49 26.016 10.99 24.583 4.823 23.572-1.944 22.988-6.548 22.589-11.429 22.389-16.567 22.389-20.552 22.389-24.548 22.511-28.449 22.754L-31.992 22.973-32.095 22.757-34.824 17.285-43.447 0H0Z"/>
<path transform="matrix(1,0,0,-1,1473.5017,641.1107)" stroke-width="1" stroke-linecap="butt" stroke-miterlimit="10" stroke-linejoin="miter" fill="none" stroke="#ec5326" d="M0 0 24.224 9.486 1.783 38.573 38.755 38.634 51.176 63.549C30.216 64.846-50.218 65.865 0 0Z"/>
<path transform="matrix(1,0,0,-1,1496.853,546.2427)" stroke-width="1" stroke-linecap="butt" stroke-miterlimit="10" stroke-linejoin="miter" fill="none" stroke="#ec5326" d="M0 0C-21.266 0-39.362-15.479-42.663-36.476L-43.682-42.952C-42.959-41.941-42.198-40.961-41.403-40.019-36.077-33.637-27.73-28.94-16.49-26.016-10.991-24.583-4.823-23.572 1.944-22.988 6.548-22.589 11.429-22.389 16.566-22.389 20.552-22.389 24.548-22.511 28.448-22.754L31.992-22.973 32.095-22.757 34.824-17.285 43.447 0H0Z"/>
<path transform="matrix(1,0,0,-1,1568.4408,546.2427)" stroke-width="1" stroke-linecap="butt" stroke-miterlimit="10" stroke-linejoin="miter" fill="none" stroke="#ec5326" d="M0 0-24.224-9.486-1.783-38.573-38.755-38.634-51.176-63.549C-30.216-64.846 50.218-65.866 0 0Z"/>
<path transform="matrix(1,0,0,-1,1545.0895,641.1107)" stroke-width="1" stroke-linecap="butt" stroke-miterlimit="10" stroke-linejoin="miter" fill="none" stroke="#ec5326" d="M0 0C21.266 0 39.362 15.479 42.663 36.476L43.682 42.951C42.959 41.941 42.198 40.961 41.403 40.019 36.077 33.637 27.73 28.94 16.49 26.016 10.991 24.583 4.823 23.572-1.944 22.988-6.548 22.589-11.429 22.389-16.567 22.389-20.552 22.389-24.548 22.511-28.449 22.754L-31.992 22.973-32.095 22.757-34.824 17.285-43.447 0H0Z"/>
<path transform="matrix(1,0,0,-1,1194.2733,748.4641)" stroke-width="1" stroke-linecap="butt" stroke-miterlimit="10" stroke-linejoin="miter" fill="none" stroke="#ec5326" d="M0 0 24.223 9.486 1.783 38.573 38.755 38.634 51.176 63.549C30.216 64.846-50.218 65.865 0 0Z"/>
<path transform="matrix(1,0,0,-1,1217.6245,653.59609)" stroke-width="1" stroke-linecap="butt" stroke-miterlimit="10" stroke-linejoin="miter" fill="none" stroke="#ec5326" d="M0 0C-21.266 0-39.362-15.479-42.663-36.476L-43.682-42.952C-42.959-41.941-42.198-40.961-41.403-40.019-36.077-33.637-27.73-28.94-16.49-26.016-10.99-24.583-4.823-23.572 1.944-22.988 6.548-22.589 11.429-22.389 16.567-22.389 20.552-22.389 24.548-22.511 28.449-22.754L31.992-22.973 32.095-22.757 34.824-17.285 43.447 0H0Z"/>
<path transform="matrix(1,0,0,-1,1289.2123,653.59609)" stroke-width="1" stroke-linecap="butt" stroke-miterlimit="10" stroke-linejoin="miter" fill="none" stroke="#ec5326" d="M0 0-24.223-9.486-1.783-38.573-38.755-38.634-51.176-63.549C-30.216-64.846 50.218-65.865 0 0Z"/>
<path transform="matrix(1,0,0,-1,1265.8611,748.4641)" stroke-width="1" stroke-linecap="butt" stroke-miterlimit="10" stroke-linejoin="miter" fill="none" stroke="#ec5326" d="M0 0C21.266 0 39.362 15.479 42.663 36.476L43.682 42.952C42.959 41.941 42.198 40.961 41.403 40.019 36.077 33.637 27.73 28.94 16.49 26.016 10.991 24.583 4.823 23.572-1.944 22.988-6.548 22.589-11.429 22.389-16.567 22.389-20.552 22.389-24.548 22.511-28.449 22.754L-31.992 22.973-32.095 22.757-34.824 17.285-43.447 0H0Z"/>
<path transform="matrix(1,0,0,-1,1334.8043,748.4641)" stroke-width="1" stroke-linecap="butt" stroke-miterlimit="10" stroke-linejoin="miter" fill="none" stroke="#ec5326" d="M0 0 24.224 9.486 1.783 38.573 38.755 38.634 51.176 63.549C30.216 64.846-50.218 65.865 0 0Z"/>
<path transform="matrix(1,0,0,-1,1358.1557,653.59609)" stroke-width="1" stroke-linecap="butt" stroke-miterlimit="10" stroke-linejoin="miter" fill="none" stroke="#ec5326" d="M0 0C-21.266 0-39.362-15.479-42.663-36.476L-43.682-42.952C-42.959-41.941-42.198-40.961-41.403-40.019-36.077-33.637-27.73-28.94-16.49-26.016-10.991-24.583-4.823-23.572 1.944-22.988 6.548-22.589 11.429-22.389 16.567-22.389 20.552-22.389 24.548-22.511 28.449-22.754L31.992-22.973 32.095-22.757 34.824-17.285 43.447 0H0Z"/>
<path transform="matrix(1,0,0,-1,1429.7434,653.59609)" stroke-width="1" stroke-linecap="butt" stroke-miterlimit="10" stroke-linejoin="miter" fill="none" stroke="#ec5326" d="M0 0-24.224-9.486-1.783-38.573-38.755-38.634-51.176-63.549C-30.216-64.846 50.218-65.865 0 0Z"/>
<path transform="matrix(1,0,0,-1,1406.3922,748.4641)" stroke-width="1" stroke-linecap="butt" stroke-miterlimit="10" stroke-linejoin="miter" fill="none" stroke="#ec5326" d="M0 0C21.266 0 39.362 15.479 42.663 36.476L43.682 42.952C42.959 41.941 42.198 40.961 41.403 40.019 36.077 33.637 27.73 28.94 16.49 26.016 10.99 24.583 4.823 23.572-1.944 22.988-6.548 22.589-11.429 22.389-16.567 22.389-20.552 22.389-24.548 22.511-28.449 22.754L-31.992 22.973-32.095 22.757-34.824 17.285-43.447 0H0Z"/>
<path transform="matrix(1,0,0,-1,1473.5017,748.4641)" stroke-width="1" stroke-linecap="butt" stroke-miterlimit="10" stroke-linejoin="miter" fill="none" stroke="#ec5326" d="M0 0 24.224 9.486 1.783 38.573 38.755 38.634 51.176 63.549C30.216 64.846-50.218 65.865 0 0Z"/>
<path transform="matrix(1,0,0,-1,1496.853,653.59609)" stroke-width="1" stroke-linecap="butt" stroke-miterlimit="10" stroke-linejoin="miter" fill="none" stroke="#ec5326" d="M0 0C-21.266 0-39.362-15.479-42.663-36.476L-43.682-42.952C-42.959-41.941-42.198-40.961-41.403-40.019-36.077-33.637-27.73-28.94-16.49-26.016-10.991-24.583-4.823-23.572 1.944-22.988 6.548-22.589 11.429-22.389 16.566-22.389 20.552-22.389 24.548-22.511 28.448-22.754L31.992-22.973 32.095-22.757 34.824-17.285 43.447 0H0Z"/>
<path transform="matrix(1,0,0,-1,1568.4408,653.59609)" stroke-width="1" stroke-linecap="butt" stroke-miterlimit="10" stroke-linejoin="miter" fill="none" stroke="#ec5326" d="M0 0-24.224-9.486-1.783-38.573-38.755-38.634-51.176-63.549C-30.216-64.846 50.218-65.865 0 0Z"/>
<path transform="matrix(1,0,0,-1,1545.0895,748.4641)" stroke-width="1" stroke-linecap="butt" stroke-miterlimit="10" stroke-linejoin="miter" fill="none" stroke="#ec5326" d="M0 0C21.266 0 39.362 15.479 42.663 36.476L43.682 42.952C42.959 41.941 42.198 40.961 41.403 40.019 36.077 33.637 27.73 28.94 16.49 26.016 10.991 24.583 4.823 23.572-1.944 22.988-6.548 22.589-11.429 22.389-16.567 22.389-20.552 22.389-24.548 22.511-28.449 22.754L-31.992 22.973-32.095 22.757-34.824 17.285-43.447 0H0Z"/>
<path transform="matrix(1,0,0,-1,1194.2733,855.8175)" stroke-width="1" stroke-linecap="butt" stroke-miterlimit="10" stroke-linejoin="miter" fill="none" stroke="#ec5326" d="M0 0 24.223 9.486 1.783 38.573 38.755 38.634 51.176 63.549C30.216 64.846-50.218 65.865 0 0Z"/>
<path transform="matrix(1,0,0,-1,1217.6245,760.9494)" stroke-width="1" stroke-linecap="butt" stroke-miterlimit="10" stroke-linejoin="miter" fill="none" stroke="#ec5326" d="M0 0C-21.266 0-39.362-15.479-42.663-36.476L-43.682-42.952C-42.959-41.941-42.198-40.961-41.403-40.019-36.077-33.637-27.73-28.94-16.49-26.016-10.99-24.583-4.823-23.572 1.944-22.988 6.548-22.589 11.429-22.389 16.567-22.389 20.552-22.389 24.548-22.511 28.449-22.754L31.992-22.973 32.095-22.757 34.824-17.285 43.447 0H0Z"/>
<path transform="matrix(1,0,0,-1,1289.2123,760.9494)" stroke-width="1" stroke-linecap="butt" stroke-miterlimit="10" stroke-linejoin="miter" fill="none" stroke="#ec5326" d="M0 0-24.223-9.486-1.783-38.573-38.755-38.634-51.176-63.549C-30.216-64.846 50.218-65.866 0 0Z"/>
<path transform="matrix(1,0,0,-1,1265.8611,855.8175)" stroke-width="1" stroke-linecap="butt" stroke-miterlimit="10" stroke-linejoin="miter" fill="none" stroke="#ec5326" d="M0 0C21.266 0 39.362 15.479 42.663 36.476L43.682 42.951C42.959 41.941 42.198 40.961 41.403 40.019 36.077 33.637 27.73 28.94 16.49 26.016 10.991 24.583 4.823 23.572-1.944 22.988-6.548 22.589-11.429 22.389-16.567 22.389-20.552 22.389-24.548 22.511-28.449 22.754L-31.992 22.973-32.095 22.757-34.824 17.285-43.447 0H0Z"/>
<path transform="matrix(1,0,0,-1,1334.8043,855.8175)" stroke-width="1" stroke-linecap="butt" stroke-miterlimit="10" stroke-linejoin="miter" fill="none" stroke="#ec5326" d="M0 0 24.224 9.486 1.783 38.573 38.755 38.634 51.176 63.549C30.216 64.846-50.218 65.865 0 0Z"/>
<path transform="matrix(1,0,0,-1,1358.1557,760.9494)" stroke-width="1" stroke-linecap="butt" stroke-miterlimit="10" stroke-linejoin="miter" fill="none" stroke="#ec5326" d="M0 0C-21.266 0-39.362-15.479-42.663-36.476L-43.682-42.952C-42.959-41.941-42.198-40.961-41.403-40.019-36.077-33.637-27.73-28.94-16.49-26.016-10.991-24.583-4.823-23.572 1.944-22.988 6.548-22.589 11.429-22.389 16.567-22.389 20.552-22.389 24.548-22.511 28.449-22.754L31.992-22.973 32.095-22.757 34.824-17.285 43.447 0H0Z"/>
<path transform="matrix(1,0,0,-1,1429.7434,760.9494)" stroke-width="1" stroke-linecap="butt" stroke-miterlimit="10" stroke-linejoin="miter" fill="none" stroke="#ec5326" d="M0 0-24.224-9.486-1.783-38.573-38.755-38.634-51.176-63.549C-30.216-64.846 50.218-65.866 0 0Z"/>
<path transform="matrix(1,0,0,-1,1406.3922,855.8175)" stroke-width="1" stroke-linecap="butt" stroke-miterlimit="10" stroke-linejoin="miter" fill="none" stroke="#ec5326" d="M0 0C21.266 0 39.362 15.479 42.663 36.476L43.682 42.951C42.959 41.941 42.198 40.961 41.403 40.019 36.077 33.637 27.73 28.94 16.49 26.016 10.99 24.583 4.823 23.572-1.944 22.988-6.548 22.589-11.429 22.389-16.567 22.389-20.552 22.389-24.548 22.511-28.449 22.754L-31.992 22.973-32.095 22.757-34.824 17.285-43.447 0H0Z"/>
<path transform="matrix(1,0,0,-1,1473.5017,855.8175)" stroke-width="1" stroke-linecap="butt" stroke-miterlimit="10" stroke-linejoin="miter" fill="none" stroke="#ec5326" d="M0 0 24.224 9.486 1.783 38.573 38.755 38.634 51.176 63.549C30.216 64.846-50.218 65.865 0 0Z"/>
<path transform="matrix(1,0,0,-1,1496.853,760.9494)" stroke-width="1" stroke-linecap="butt" stroke-miterlimit="10" stroke-linejoin="miter" fill="none" stroke="#ec5326" d="M0 0C-21.266 0-39.362-15.479-42.663-36.476L-43.682-42.952C-42.959-41.941-42.198-40.961-41.403-40.019-36.077-33.637-27.73-28.94-16.49-26.016-10.991-24.583-4.823-23.572 1.944-22.988 6.548-22.589 11.429-22.389 16.566-22.389 20.552-22.389 24.548-22.511 28.448-22.754L31.992-22.973 32.095-22.757 34.824-17.285 43.447 0H0Z"/>
<path transform="matrix(1,0,0,-1,1568.4408,760.9494)" stroke-width="1" stroke-linecap="butt" stroke-miterlimit="10" stroke-linejoin="miter" fill="none" stroke="#ec5326" d="M0 0-24.224-9.486-1.783-38.573-38.755-38.634-51.176-63.549C-30.216-64.846 50.218-65.866 0 0Z"/>
<path transform="matrix(1,0,0,-1,1545.0895,855.8175)" stroke-width="1" stroke-linecap="butt" stroke-miterlimit="10" stroke-linejoin="miter" fill="none" stroke="#ec5326" d="M0 0C21.266 0 39.362 15.479 42.663 36.476L43.682 42.951C42.959 41.941 42.198 40.961 41.403 40.019 36.077 33.637 27.73 28.94 16.49 26.016 10.991 24.583 4.823 23.572-1.944 22.988-6.548 22.589-11.429 22.389-16.567 22.389-20.552 22.389-24.548 22.511-28.449 22.754L-31.992 22.973-32.095 22.757-34.824 17.285-43.447 0H0Z"/>
</g>
</g>
</svg>
